<?xml version="1.0" standalone="no"?>
<!DOCTYPE svg PUBLIC "-//W3C//DTD SVG 1.1//EN" "http://www.w3.org/Graphics/SVG/1.1/DTD/svg11.dtd" >
<svg xmlns="http://www.w3.org/2000/svg" xmlns:xlink="http://www.w3.org/1999/xlink" version="1.1">
<metadata></metadata>
<defs>
<font id="db_ozone_xlight" horiz-adv-x="0" >
<font-face units-per-em="2048" ascent="1638" descent="-410" />
<missing-glyph horiz-adv-x="428" />
<glyph unicode="&#x2b;&#x2d;" horiz-adv-x="845" d="M94 0v74h660v-74h-660zM94 434v76h293v293h78v-293h289v-76h-289v-291h-78v291h-293z" />
<glyph unicode="&#x2e;&#x2e;&#x2e;" horiz-adv-x="1167" d="M143 59q0 29 19.5 48.5t48.5 19.5t48.5 -19.5t19.5 -48.5t-19.5 -48t-48.5 -19t-48.5 19t-19.5 48zM516 59q0 29 19.5 48.5t48.5 19.5t48 -19.5t19 -48.5t-19.5 -48t-47.5 -19q-29 0 -48.5 19t-19.5 48zM885 59q0 29 19.5 48.5t47.5 19.5q29 0 48.5 -19.5t19.5 -48.5 t-19.5 -48t-48.5 -19t-48 19t-19 48z" />
<glyph unicode="&#x3c;&#x3d;" horiz-adv-x="847" d="M94 35h660v78h-660v-78zM94 434v76l660 256v-84l-561 -209l561 -209v-84z" />
<glyph unicode="&#x3e;&#x3d;" horiz-adv-x="845" d="M94 35v78h660v-78h-660zM94 180v84l561 209l-561 209v84l660 -256v-76z" />
<glyph unicode="&#xe4f;&#x22;" horiz-adv-x="1046" d="M106 410q0 86 33 162.5t89.5 133t131 89t160.5 32.5t163 -32.5t133 -89t89 -133t33 -162.5t-33 -161t-89 -131.5t-133 -89t-163 -32.5t-160.5 32.5t-131 89t-89.5 131.5t-33 161zM188 410q0 -68 27 -128.5t72 -105.5t105.5 -71.5t127.5 -26.5q70 0 131.5 26.5t106.5 71.5 t71.5 105.5t26.5 128.5q0 70 -26.5 131t-71.5 106t-106.5 71.5t-131.5 26.5q-68 0 -128 -26.5t-105 -71.5t-72 -106t-27 -131zM299 410q0 45 17.5 86t48 71.5t70.5 48t85 17.5t86 -17.5t72 -48t48 -71.5t17 -86t-17 -85t-48 -71t-72 -48.5t-86 -17.5t-85 17.5t-70.5 48.5 t-48 71t-17.5 85zM358 1200h109l-12 -266h-84zM381 410q0 -57 41 -98.5t98 -41.5q59 0 100.5 41t41.5 99q0 59 -41 100t-101 41q-57 0 -98 -41t-41 -100zM571 1200h109l-12 -266h-84z" />
<glyph unicode="&#xe0e;&#xe3a;" horiz-adv-x="925" d="M68 78q39 -2 60.5 10t30.5 32.5t10 44t1 44.5v303l-76 109q63 109 152.5 162t212.5 53q174 0 258 -82t84 -236v-573q0 -27 -13.5 -51.5t-36 -39t-52 -16.5t-62.5 15l-188 90q-18 8 -37 0l-197 -103l-43 56l223 114q23 10 35 10t35 -10l205 -92q16 -8 29.5 0t13.5 29v557 q0 141 -66.5 198.5t-189.5 57.5q-72 0 -141.5 -27.5t-118.5 -114.5l63 -94v-336q0 -63 -19.5 -101t-47 -57.5t-58.5 -24.5t-53 -5zM670 -317q0 29 19.5 48t47.5 19q29 0 48.5 -19.5t19.5 -47.5q0 -29 -19.5 -48.5t-48.5 -19.5t-48 19.5t-19 48.5z" />
<glyph unicode="&#xe0f;&#xe3a;" horiz-adv-x="925" d="M70 76q39 -2 60.5 10t30.5 32.5t10 44t1 44.5v305l-76 109q63 109 152.5 162t212.5 53q174 0 258 -82t84 -236v-567q0 -37 -17.5 -62.5t-42 -39t-53 -13.5t-51.5 19l-107 86q-14 12 -26 0l-98 -86q-23 -14 -38.5 -13.5t-31.5 13.5l-121 90l70 41l78 -58q10 -8 22 0l98 86 q20 10 33.5 10.5t34.5 -10.5l115 -88q16 -12 31.5 -5t15.5 30v553q0 141 -66.5 198.5t-189.5 57.5q-72 0 -141.5 -27.5t-118.5 -114.5l63 -94v-336q0 -63 -19.5 -101t-47 -57.5t-58.5 -24.5t-53 -5zM670 -317q0 29 19.5 48t47.5 19q29 0 48.5 -19.5t19.5 -47.5 q0 -29 -19.5 -48.5t-48.5 -19.5t-48 19.5t-19 48.5z" />
<glyph unicode="&#xe0e;&#xe38;" horiz-adv-x="925" d="M68 78q39 -2 60.5 10t30.5 32.5t10 44t1 44.5v303l-76 109q63 109 152.5 162t212.5 53q174 0 258 -82t84 -236v-534q0 -31 -9.5 -54.5t-22.5 -39t-25.5 -25.5t-18.5 -12q-18 -10 -42 -10.5t-46 10.5l-188 90q-18 8 -37 0l-197 -103l-43 56l223 114q23 10 35 10t35 -10 l205 -92q16 -4 29.5 10.5t13.5 34.5v541q0 141 -66.5 198.5t-189.5 57.5q-72 0 -141.5 -27.5t-118.5 -114.5l63 -94v-336q0 -63 -19.5 -101t-47 -57.5t-58.5 -24.5t-53 -5zM629 -238h37q76 0 106.5 -26.5t30.5 -118.5v-113h-88v111q0 47 -12.5 59.5t-47.5 12.5h-26v75z" />
<glyph unicode="&#xe0f;&#xe38;" horiz-adv-x="925" d="M70 76q39 -2 60.5 10t30.5 32.5t10 44t1 44.5v305l-76 109q63 109 152.5 162t212.5 53q174 0 258 -82t84 -236v-528q0 -35 -20.5 -72t-67.5 -63q-41 -23 -76 0l-107 86q-14 12 -26 0l-98 -86q-23 -14 -38.5 -13.5t-31.5 13.5l-121 90l70 41l78 -58q10 -8 22 0l98 86 q20 10 33.5 10.5t34.5 -10.5l115 -88q20 0 33.5 17.5t13.5 36.5v524q0 141 -66.5 198.5t-189.5 57.5q-72 0 -141.5 -27.5t-118.5 -114.5l63 -94v-336q0 -63 -19.5 -101t-47 -57.5t-58.5 -24.5t-53 -5zM629 -238h37q76 0 106.5 -26.5t30.5 -118.5v-113h-88v111 q0 47 -12.5 59.5t-47.5 12.5h-26v75z" />
<glyph unicode="&#xe0e;&#xe39;" horiz-adv-x="925" d="M68 78q39 -2 60.5 10t30.5 32.5t10 44t1 44.5v303l-76 109q63 109 152.5 162t212.5 53q174 0 258 -82t84 -236v-534q0 -31 -9.5 -54.5t-22.5 -39t-25.5 -25.5t-18.5 -12q-18 -10 -42 -10.5t-46 10.5l-188 90q-18 8 -37 0l-197 -103l-43 56l223 114q23 10 35 10t35 -10 l205 -92q16 -4 29.5 10.5t13.5 34.5v541q0 141 -66.5 198.5t-189.5 57.5q-72 0 -141.5 -27.5t-118.5 -114.5l63 -94v-336q0 -63 -19.5 -101t-47 -57.5t-58.5 -24.5t-53 -5zM422 -236h51q59 0 79.5 -23.5t20.5 -80.5v-10q0 -23 15.5 -47.5t56.5 -24.5q43 0 56.5 24.5 t13.5 47.5v114h86v-114q0 -66 -44 -105t-112 -39q-72 0 -114 39t-42 105q0 25 -8 33t-30 8h-27z" />
<glyph unicode="&#xe0f;&#xe39;" horiz-adv-x="925" d="M70 76q39 -2 60.5 10t30.5 32.5t10 44t1 44.5v305l-76 109q63 109 152.5 162t212.5 53q174 0 258 -82t84 -236v-528q0 -35 -20.5 -72t-67.5 -63q-41 -23 -76 0l-107 86q-14 12 -26 0l-98 -86q-23 -14 -38.5 -13.5t-31.5 13.5l-121 90l70 41l78 -58q10 -8 22 0l98 86 q20 10 33.5 10.5t34.5 -10.5l115 -88q20 0 33.5 17.5t13.5 36.5v524q0 141 -66.5 198.5t-189.5 57.5q-72 0 -141.5 -27.5t-118.5 -114.5l63 -94v-336q0 -63 -19.5 -101t-47 -57.5t-58.5 -24.5t-53 -5zM422 -236h51q59 0 79.5 -23.5t20.5 -80.5v-10q0 -23 15.5 -47.5 t56.5 -24.5q43 0 56.5 24.5t13.5 47.5v114h86v-114q0 -66 -44 -105t-112 -39q-72 0 -114 39t-42 105q0 25 -8 33t-30 8h-27z" />
<glyph unicode="&#xd;" horiz-adv-x="485" />
<glyph unicode=" "  horiz-adv-x="428" />
<glyph unicode="&#x09;" horiz-adv-x="428" />
<glyph unicode="&#xa0;" horiz-adv-x="428" />
<glyph unicode="!" horiz-adv-x="491" d="M205 57q0 29 17.5 46.5t45.5 17.5q29 0 46.5 -17.5t17.5 -46.5t-17.5 -46t-46.5 -17t-46 17t-17 46zM223 1034h90l-6 -725h-78z" />
<glyph unicode="&#x22;" horiz-adv-x="657" d="M152 793v249h102v-249h-102zM401 793v249h103v-249h-103z" />
<glyph unicode="#" horiz-adv-x="997" d="M133 350v68h158l35 219h-148v72h158l57 333h82l-55 -333h264l53 333h80l-53 -333h141v-72h-151q-10 -55 -19.5 -109.5t-17.5 -109.5h145v-68h-157l-58 -352h-84l62 352h-265l-55 -352h-82l58 352h-148zM369 414h268l39 227h-273z" />
<glyph unicode="$" horiz-adv-x="843" d="M47 131l64 59q66 -61 127 -89.5t139 -32.5v428q-4 0 -10.5 1t-10.5 1q-63 10 -115.5 31.5t-82.5 43.5q-84 74 -84 193q0 123 84 198.5t219 88.5v129h72v-129q86 -4 151.5 -32t128.5 -81l-57 -55q-47 39 -97.5 66.5t-125.5 31.5v-422l43 -6q78 -14 119.5 -27.5t76.5 -42.5 q45 -37 69.5 -86.5t24.5 -115.5q0 -127 -91 -203t-242 -90v-158h-72v158q-104 4 -181 40t-149 101zM158 770q0 -43 13 -78t42 -57q37 -31 80 -44t84 -20v412q-102 -10 -160.5 -66.5t-58.5 -146.5zM449 68q111 8 179 63.5t68 147.5q0 43 -15 80.5t-46 62.5q-35 33 -73 42 t-81 15q-10 0 -16 2t-16 2v-415z" />
<glyph unicode="%" horiz-adv-x="1212" d="M80 692v158q0 90 54 144.5t147 54.5q90 0 146 -54.5t56 -144.5v-158q0 -86 -56 -140t-146 -54q-92 0 -146.5 54t-54.5 140zM150 696q0 -66 30.5 -102.5t100.5 -36.5q68 0 99.5 38t31.5 101v154q0 61 -31 99t-100 38q-70 0 -100.5 -38t-30.5 -99v-154zM322 0l503 1034h74 l-506 -1034h-71zM729 188v156q0 90 55.5 144.5t147.5 54.5t148.5 -54.5t56.5 -144.5v-156q0 -90 -56.5 -145t-148.5 -55t-147.5 55t-55.5 145zM801 190q0 -63 30.5 -102t100.5 -39q72 0 102.5 40t30.5 101v150q0 66 -30.5 104.5t-102.5 38.5q-70 0 -100.5 -38.5 t-30.5 -104.5v-150z" />
<glyph unicode="&#x26;" horiz-adv-x="1093" d="M100 289q0 61 21.5 108t56.5 85t79 70t91 62q-41 47 -80 105.5t-39 126.5q0 90 64.5 149.5t159.5 59.5q47 0 88 -16.5t70.5 -45t47 -66.5t17.5 -83q0 -66 -37 -112t-88 -77q-16 -12 -31 -20q-12 -8 -26.5 -17.5t-24.5 -15.5l311 -356q16 27 27.5 51.5t20 53t11.5 65.5 t3 86h84q0 -98 -20.5 -178t-71.5 -140q37 -43 78.5 -92t76.5 -92h-110l-105 119q-18 -14 -48 -37t-72 -43.5t-96 -34.5t-118 -14q-154 0 -247 82t-93 217zM188 293q0 -104 70 -165.5t180 -61.5q66 0 135.5 22.5t151.5 89.5l-326 379q-37 -25 -74.5 -50.5t-68.5 -56 t-49.5 -69.5t-18.5 -88zM315 850q0 -39 23.5 -79t83.5 -112q8 4 17.5 11.5t19.5 13.5q10 8 22 12q41 29 76 64t35 84q0 57 -41 97t-98 40q-59 0 -98.5 -38t-39.5 -93z" />
<glyph unicode="'" horiz-adv-x="407" d="M152 793v249h102v-249h-102z" />
<glyph unicode="(" horiz-adv-x="456" d="M156 127v893q0 41 6 75.5t26 75.5q16 37 41 64t66 63l53 -55q-27 -29 -49.5 -52.5t-36.5 -51.5q-23 -47 -22 -129v-873q0 -80 22 -127q14 -31 37 -54.5t49 -51.5l-53 -56q-41 39 -65.5 65t-41.5 64q-20 37 -26 75t-6 75z" />
<glyph unicode=")" horiz-adv-x="456" d="M104 -92q29 29 50.5 52.5t35.5 51.5q14 27 18.5 57.5t4.5 67.5v873q0 37 -4 68.5t-19 58.5q-14 29 -35.5 52t-50.5 50l62 59q35 -37 59.5 -63.5t46.5 -63.5q20 -41 24.5 -75.5t4.5 -75.5v-893q0 -37 -4 -75t-25 -75q-23 -39 -47 -64.5t-59 -64.5z" />
<glyph unicode="*" horiz-adv-x="753" d="M117 670l196 110l-196 109l35 61l192 -116l-4 227h72l-4 -227l192 116l35 -61l-197 -109l197 -110l-35 -60l-192 117l4 -227h-72l4 227l-192 -117z" />
<glyph unicode="+" horiz-adv-x="847" d="M94 387v76h293v291h78v-291h289v-76h-289v-291h-78v291h-293z" />
<glyph unicode="," horiz-adv-x="415" d="M152 111h110v-222l-110 -108v330z" />
<glyph unicode="-" horiz-adv-x="688" d="M133 387v76h422v-76h-422z" />
<glyph unicode="." horiz-adv-x="425" d="M143 59q0 29 19.5 48.5t48.5 19.5t48.5 -19.5t19.5 -48.5t-19.5 -48t-48.5 -19t-48.5 19t-19.5 48z" />
<glyph unicode="/" horiz-adv-x="544" d="M0 -119l459 1387h86l-461 -1387h-84z" />
<glyph unicode="0" horiz-adv-x="747" d="M84 270v500q0 123 79 197.5t208 74.5q63 0 117.5 -19t93.5 -55t60.5 -86.5t21.5 -111.5v-500q0 -61 -21.5 -112.5t-60.5 -88t-93.5 -57t-117.5 -20.5q-129 0 -208 77.5t-79 200.5zM166 274q0 -86 52 -150.5t153 -64.5q104 0 156.5 64.5t52.5 150.5v488q0 92 -52.5 153.5 t-156.5 61.5q-100 0 -152.5 -61.5t-52.5 -153.5v-488z" />
<glyph unicode="1" horiz-adv-x="747" d="M184 778v94l199 162h84v-1034h-84v946z" />
<glyph unicode="2" horiz-adv-x="747" d="M88 0v70l440 540q29 41 44.5 79t15.5 81q0 92 -55.5 148.5t-153.5 56.5q-41 0 -79 -12.5t-66.5 -37t-46 -63.5t-17.5 -94h-82q0 119 77 196.5t214 77.5q135 0 214 -72.5t79 -199.5q0 -59 -18.5 -104t-59.5 -97l-408 -499h486v-70h-584z" />
<glyph unicode="3" horiz-adv-x="747" d="M37 254h84q4 -53 24.5 -90t53 -60.5t72.5 -35t81 -11.5q98 0 164 58.5t66 158.5q0 104 -55.5 163t-182.5 59h-18v69h18q113 0 166 52.5t53 150.5q0 104 -62.5 156.5t-150.5 52.5q-96 0 -150.5 -51.5t-64.5 -139.5h-86q16 123 98 189.5t203 66.5q133 0 212 -72.5 t79 -201.5q0 -80 -34 -140.5t-113 -92.5q88 -29 130 -96t42 -165q0 -70 -24 -123t-65.5 -89.5t-99 -55t-125.5 -18.5q-131 0 -218 65.5t-97 200.5z" />
<glyph unicode="4" horiz-adv-x="747" d="M39 170v66l405 798h88l-403 -796h344v327h84v-327h148v-68h-148v-170h-84v170h-434z" />
<glyph unicode="5" horiz-adv-x="747" d="M92 231h82q10 -82 58.5 -128t144.5 -46q43 0 84 14.5t67 41.5q47 47 56.5 107.5t9.5 117.5q0 47 -7 96t-28.5 89t-61.5 64.5t-106 24.5q-74 0 -127 -28.5t-69 -79.5h-74v530h528v-67h-454v-357q70 70 204 70q59 0 106.5 -15.5t80.5 -43.5q57 -55 73.5 -133t16.5 -150 q0 -74 -13.5 -145.5t-72.5 -129.5q-39 -35 -90 -55t-123 -20q-68 0 -123 18.5t-90 50.5q-31 29 -49.5 72t-22.5 102z" />
<glyph unicode="6" horiz-adv-x="747" d="M68 297q0 53 13 106.5t50 120.5l270 510h86l-237 -442q27 8 60.5 14t68.5 6q72 0 128 -23.5t94 -64.5t58.5 -97t20.5 -122t-20.5 -123t-60.5 -100t-96.5 -67.5t-129.5 -24.5q-74 0 -130.5 22.5t-95 63.5t-59 97t-20.5 124zM152 301q0 -104 59 -174t162 -70 q102 0 161.5 70t59.5 174q0 49 -13.5 92t-41 76t-67.5 52.5t-95 19.5q-102 0 -163.5 -64.5t-61.5 -175.5z" />
<glyph unicode="7" horiz-adv-x="747" d="M111 805v229h579v-65l-389 -969h-86l387 967h-409v-162h-82z" />
<glyph unicode="8" horiz-adv-x="747" d="M57 281q0 92 48.5 156.5t123.5 101.5q-72 41 -109.5 97t-37.5 138q0 57 20.5 107.5t59.5 85t91 55t118 20.5t120 -20.5t93 -55t60.5 -85t21.5 -107.5q0 -78 -39 -136t-109 -99q78 -37 124 -101.5t46 -156.5q0 -61 -23.5 -114.5t-66.5 -92.5t-101.5 -60.5t-125.5 -21.5 q-66 0 -123.5 21.5t-99.5 60.5t-66.5 92t-24.5 115zM141 285q0 -45 17.5 -85t48.5 -71t73 -48.5t91 -17.5t92 17.5t74.5 48.5t49 71t17.5 85q0 94 -66.5 157.5t-166.5 63.5q-49 0 -91 -17.5t-73 -47t-48.5 -69.5t-17.5 -87zM164 774q0 -90 57.5 -145.5t149.5 -55.5 q96 0 153.5 55.5t57.5 145.5q0 88 -57.5 145.5t-153.5 57.5q-92 0 -149.5 -57.5t-57.5 -145.5z" />
<glyph unicode="9" horiz-adv-x="747" d="M68 727q0 66 20.5 123t59 100t95 67.5t130.5 24.5t131 -22.5t96 -63.5t59.5 -97t20.5 -122q0 -53 -14.5 -107.5t-49.5 -119.5l-272 -510h-84l238 442q-27 -8 -61 -14t-68 -6q-72 0 -128.5 23.5t-94 64.5t-58 96t-20.5 121zM152 733q0 -49 13 -92t40.5 -76t68.5 -52 t97 -19q102 0 162.5 64.5t60.5 174.5q0 104 -58.5 174t-162.5 70q-100 0 -160.5 -70t-60.5 -174z" />
<glyph unicode=":" horiz-adv-x="471" d="M190 59q0 29 19.5 48.5t48.5 19.5t48.5 -19.5t19.5 -48.5t-19.5 -48t-48.5 -19t-48.5 19t-19.5 48zM190 600q0 29 19.5 48.5t48.5 19.5t48.5 -19.5t19.5 -48.5t-19.5 -48.5t-48.5 -19.5t-48.5 19.5t-19.5 48.5z" />
<glyph unicode=";" horiz-adv-x="471" d="M190 600q0 29 19.5 48.5t48.5 19.5t48.5 -19.5t19.5 -48.5t-19.5 -48.5t-48.5 -19.5t-48.5 19.5t-19.5 48.5zM203 111h108v-224l-108 -106v330z" />
<glyph unicode="&#x3c;" horiz-adv-x="845" d="M94 434v76l660 256v-84l-561 -209l561 -209v-84z" />
<glyph unicode="=" horiz-adv-x="847" d="M94 262v76h660v-76h-660zM94 510v76h660v-76h-660z" />
<glyph unicode="&#x3e;" horiz-adv-x="845" d="M94 180v84l561 209l-561 209v84l660 -256v-76z" />
<glyph unicode="?" horiz-adv-x="724" d="M96 793q0 53 20.5 101t56.5 84t86 56.5t112 20.5q59 0 110 -19.5t88 -54.5t57.5 -83t20.5 -103q0 -51 -19.5 -92t-47.5 -82q-31 -45 -65 -92.5t-64 -94.5q-16 -18 -21.5 -41.5t-5.5 -40.5v-71h-84v67q0 41 11 69.5t34 63.5l127 181q23 33 38 63.5t15 69.5q0 80 -55 134 t-139 54q-86 0 -139.5 -56.5t-53.5 -133.5h-82zM317 57q0 29 17.5 46.5t46.5 17.5t46 -17.5t17 -46.5t-17 -46t-46 -17t-46.5 17t-17.5 46z" />
<glyph unicode="@" horiz-adv-x="1288" d="M98 524q6 115 52.5 216.5t122 176t176 117.5t215.5 43q119 0 218 -40t169.5 -110.5t108.5 -167.5t36 -214q-2 -70 -21.5 -131.5t-56.5 -106.5t-90 -71.5t-121 -26.5q-59 0 -93 27.5t-44 68.5q-53 -61 -104.5 -78.5t-104.5 -17.5q-55 0 -94 18.5t-62.5 50t-35 74.5 t-11.5 90q0 20 2 41t7 41q12 68 34.5 125.5t59.5 100.5t88 67.5t119 24.5q51 0 93 -16.5t73 -65.5l14 67h74l-74 -419q-12 -74 5 -107t62 -33q47 0 85 24.5t64 64.5t40 89.5t16 98.5q2 96 -30.5 181t-93 147.5t-146.5 98.5t-186 36q-94 0 -180.5 -35t-152 -98.5 t-107.5 -152.5t-48 -198q-4 -100 30 -188t96.5 -152.5t148.5 -102.5t186 -38q82 0 164 27.5t145 76.5l47 -61q-74 -53 -166 -84t-190 -31q-115 0 -215 41t-174 114t-114 174t-36 224zM438 426q0 -66 29 -112t108 -46q55 0 94.5 22.5t64 59.5t39 82t22.5 92q4 29 8 53.5 t4 51.5q0 66 -28.5 110.5t-110.5 44.5q-53 0 -91 -23.5t-64 -61t-41 -84t-23 -91.5q-4 -25 -7.5 -50t-3.5 -48z" />
<glyph unicode="A" horiz-adv-x="882" d="M4 0l399 1034h76l400 -1034h-91l-94 250h-504l-94 -250h-92zM217 324h451l-226 594z" />
<glyph unicode="B" horiz-adv-x="958" d="M143 0v1034h385q68 0 125.5 -18.5t100.5 -52t66.5 -85t23.5 -114.5q0 -80 -43 -143.5t-123 -90.5q86 -29 133 -93t47 -154q0 -141 -87 -212t-232 -71h-396zM231 74h297q113 0 179.5 55.5t66.5 153.5t-66.5 153.5t-179.5 55.5h-297v-418zM231 565h285q98 0 169 47.5 t71 151.5q0 53 -19.5 91t-51.5 61.5t-76 35t-93 11.5h-285v-398z" />
<glyph unicode="C" horiz-adv-x="899" d="M102 518q0 88 2 151.5t11.5 111.5t29 85t54.5 72q51 53 118.5 79.5t141.5 26.5q139 0 233 -80.5t119 -224.5h-84q-23 109 -93.5 170.5t-174.5 61.5q-53 0 -103.5 -19.5t-89.5 -58.5q-29 -29 -45 -59.5t-24.5 -73.5t-10.5 -101.5t-2 -140.5t2 -140.5t10.5 -101.5t25 -73.5 t44.5 -59.5q80 -80 193 -80q104 0 177 63.5t95 170.5h78l2 -2q-25 -141 -120 -223t-232 -82q-74 0 -141.5 27.5t-118.5 78.5q-35 35 -54.5 73t-29 86t-11.5 111.5t-2 151.5z" />
<glyph unicode="D" horiz-adv-x="989" d="M143 0v1034h369q123 0 196.5 -41t113.5 -110.5t53.5 -161t13.5 -191.5q0 -102 -11.5 -197t-50.5 -169t-113.5 -119t-201.5 -45h-369zM231 74h263q106 0 167.5 39t93 102.5t40 146t8.5 168.5t-10.5 164t-43 137.5t-94 95.5t-161.5 36h-263v-889z" />
<glyph unicode="E" horiz-adv-x="862" d="M143 0v1034h664v-71h-576v-402h490v-74h-490v-413h576v-74h-664z" />
<glyph unicode="F" horiz-adv-x="811" d="M143 0v1034h643v-71h-555v-420h471v-78h-471v-465h-88z" />
<glyph unicode="G" horiz-adv-x="909" d="M98 518q0 88 2 151.5t11.5 111.5t29 85t54.5 72q51 53 118.5 79.5t141.5 26.5q137 0 233 -82.5t121 -222.5h-82q-23 109 -95.5 170.5t-176.5 61.5q-51 0 -105.5 -22.5t-97.5 -65.5q-23 -27 -37 -58.5t-22.5 -74.5t-10.5 -99.5t-2 -132.5q0 -82 2 -140.5t10.5 -101.5 t24.5 -73.5t45 -59.5q80 -80 193 -80q57 0 114.5 28t96.5 73q35 43 50 91t15 114v90h-278v71h360v-170q0 -156 -86 -249q-51 -53 -121.5 -87t-150.5 -34q-74 0 -141.5 27.5t-118.5 78.5q-35 35 -54.5 73t-29 86t-11.5 111.5t-2 151.5z" />
<glyph unicode="H" horiz-adv-x="1021" d="M143 0v1034h88v-473h562v473h86v-1034h-86v487h-562v-487h-88z" />
<glyph unicode="I" horiz-adv-x="395" d="M154 0v1034h86v-1034h-86z" />
<glyph unicode="J" horiz-adv-x="704" d="M10 86l60 57q33 -33 70.5 -54t109.5 -21q117 0 178 69.5t61 198.5v698h86v-715q0 -152 -87 -240.5t-238 -88.5q-76 0 -133.5 23.5t-106.5 72.5z" />
<glyph unicode="K" horiz-adv-x="935" d="M143 0v1034h88v-639l547 639h105l-336 -397l393 -637h-104l-347 578l-258 -297v-281h-88z" />
<glyph unicode="L" horiz-adv-x="802" d="M143 0v1034h88v-956h555v-78h-643z" />
<glyph unicode="M" horiz-adv-x="1161" d="M143 0v1034h80l363 -803l352 803h78v-1034h-86v770l6 115l-27 -94l-284 -639h-84l-291 647l-25 88l4 -117v-770h-86z" />
<glyph unicode="N" horiz-adv-x="1046" d="M143 0v1034h80l594 -893v893h86v-1034h-80l-594 893v-893h-86z" />
<glyph unicode="O" horiz-adv-x="913" d="M100 518q0 88 2 151.5t11.5 111.5t29 85t54.5 72q51 53 118.5 79.5t141.5 26.5q76 0 142.5 -26.5t117.5 -79.5q35 -35 54.5 -72t28.5 -85t11 -111.5t2 -151.5t-2 -151.5t-11 -111.5t-28.5 -86t-54.5 -73q-51 -51 -118 -78.5t-142 -27.5q-74 0 -141.5 27.5t-118.5 78.5 q-35 35 -54.5 73t-29 86t-11.5 111.5t-2 151.5zM182 518q0 -82 2 -140.5t10.5 -101.5t25 -73.5t44.5 -59.5q80 -80 193 -80q111 0 194 80q27 29 43.5 59.5t24.5 73.5t10 101.5t2 140.5t-2 140.5t-10 101.5t-24.5 73.5t-43.5 59.5q-82 78 -194 78q-53 0 -103.5 -19.5 t-89.5 -58.5q-29 -29 -45 -59.5t-24.5 -73.5t-10.5 -101.5t-2 -140.5z" />
<glyph unicode="P" horiz-adv-x="894" d="M143 0v1034h383q143 0 235.5 -76t92.5 -223q0 -141 -92 -219t-236 -78h-295v-438h-88zM231 510h285q111 0 181.5 56t70.5 169q0 117 -70.5 172.5t-181.5 55.5h-285v-453z" />
<glyph unicode="Q" horiz-adv-x="913" d="M100 518q0 88 2 151.5t11.5 111.5t29 85t54.5 72q51 53 118.5 79.5t141.5 26.5q76 0 142.5 -26.5t117.5 -79.5q35 -35 54.5 -72t28.5 -85t11 -111.5t2 -151.5q0 -145 -9 -232t-50 -145l147 -139l-59 -55l-142 133q-49 -43 -112.5 -66.5t-130.5 -23.5q-74 0 -141.5 27.5 t-118.5 78.5q-35 35 -54.5 73t-29 86t-11.5 111.5t-2 151.5zM182 518q0 -82 2 -140.5t10.5 -101.5t25 -73.5t44.5 -59.5q80 -80 193 -80q51 0 99 18.5t85 53.5l-139 135l59 56l131 -127q27 47 33 119.5t6 199.5q0 82 -2 140.5t-10 101.5t-24.5 73.5t-43.5 59.5 q-82 78 -194 78q-53 0 -103.5 -19.5t-89.5 -58.5q-29 -29 -45 -59.5t-24.5 -73.5t-10.5 -101.5t-2 -140.5z" />
<glyph unicode="R" horiz-adv-x="956" d="M143 0v1034h418q68 0 124 -17.5t98 -53t65.5 -87t23.5 -118.5q0 -113 -69.5 -186.5t-179.5 -96.5q66 -117 133 -237.5t131 -237.5h-103l-256 473h-297v-473h-88zM231 549h318q104 0 169.5 51.5t65.5 155.5t-65.5 155.5t-169.5 51.5h-318v-414z" />
<glyph unicode="S" horiz-adv-x="806" d="M47 129l62 61q70 -74 134 -98t156 -24q123 0 193 54t70 152q0 49 -14.5 83t-41 57.5t-63.5 37t-82 21.5l-121 19q-119 20 -193.5 82.5t-74.5 185.5q0 131 86 206.5t237 75.5q96 0 164 -26.5t135 -85.5l-53 -53q-49 43 -104.5 69.5t-147.5 26.5q-111 0 -173 -56.5 t-62 -154.5q0 -45 16 -78t44 -55.5t65.5 -38t78.5 -23.5l109 -16q59 -10 110.5 -30.5t88 -53.5t58 -79t21.5 -109q0 -131 -93 -210t-255 -79q-119 0 -197.5 33.5t-152.5 105.5z" />
<glyph unicode="T" horiz-adv-x="763" d="M14 961v73h736v-73h-326v-961h-88v961h-322z" />
<glyph unicode="U" horiz-adv-x="970" d="M129 358v676h86v-663q0 -135 69.5 -219t200.5 -84q129 0 199 84t70 219v663h88v-676q0 -80 -24.5 -147.5t-71 -116.5t-113 -76.5t-148.5 -27.5q-84 0 -149.5 27.5t-111.5 76.5t-70.5 117t-24.5 147z" />
<glyph unicode="V" horiz-adv-x="880" d="M47 1034h88l305 -893l305 893h91l-359 -1034h-76z" />
<glyph unicode="W" horiz-adv-x="1314" d="M45 1034h86l229 -897l254 897h84l254 -897l228 897h90l-271 -1034h-88l-254 897l-256 -897h-86z" />
<glyph unicode="X" horiz-adv-x="794" d="M14 0l332 528l-309 506h98l260 -430l262 430h97l-308 -506q82 -129 167 -263t167 -265h-102l-283 455l-284 -455h-97z" />
<glyph unicode="Y" horiz-adv-x="817" d="M45 1034h92l277 -520l270 520h90l-321 -604v-430h-86v430z" />
<glyph unicode="Z" horiz-adv-x="841" d="M88 0v88l571 875h-548v71h643v-71l-578 -889h578v-74h-666z" />
<glyph unicode="[" horiz-adv-x="466" d="M156 -119v1387h239v-74h-155v-1241h155v-72h-239z" />
<glyph unicode="\" horiz-adv-x="544" d="M0 1268h84l461 -1387h-86z" />
<glyph unicode="]" horiz-adv-x="466" d="M74 -51h159v1251h-159v68h237v-1387h-237v68z" />
<glyph unicode="^" horiz-adv-x="829" d="M121 565l256 477h76l254 -477h-82l-211 391l-207 -391h-86z" />
<glyph unicode="_" horiz-adv-x="829" d="M0 -197h829v-61h-829v61z" />
<glyph unicode="`" horiz-adv-x="806" d="M213 1073h109l155 -237h-92z" />
<glyph unicode="a" horiz-adv-x="780" d="M57 211q0 109 72 168t201 59h250v92q0 90 -50.5 137.5t-169.5 47.5q-80 0 -129 -22.5t-96 -76.5l-59 54q53 55 115.5 85.5t168.5 30.5q154 0 228 -66.5t74 -189.5v-530h-82v78q-51 -49 -102.5 -68.5t-135.5 -19.5q-125 0 -205 49t-80 172zM139 213q0 -76 49.5 -114 t153.5 -38q53 0 102.5 10.5t90.5 49.5q45 43 45 151v97h-244q-197 0 -197 -156z" />
<glyph unicode="b" horiz-adv-x="825" d="M123 0v1128h84v-452q51 68 110.5 89t124.5 21q90 0 148.5 -33.5t93.5 -90t49.5 -128t14.5 -147.5q0 -74 -14.5 -145.5t-49.5 -128t-94.5 -90t-147.5 -33.5q-66 0 -125 21.5t-110 88.5v-100h-84zM207 387q0 -59 7 -117.5t30.5 -104.5t67.5 -75t118 -29t119 29t69.5 75 t32.5 104.5t8 117.5q0 61 -8 119.5t-32.5 104.5t-69.5 75t-119 29t-118 -29t-67.5 -75t-30.5 -104t-7 -120z" />
<glyph unicode="c" horiz-adv-x="720" d="M78 387q0 186 90 292.5t250 106.5q39 0 71.5 -5t62.5 -19t58.5 -37t59.5 -57l-56 -52q-49 55 -93 77t-103 22q-70 0 -119 -25.5t-81 -71t-46 -104.5t-14 -127t14 -126t46 -103t81 -71t119 -26q59 0 103 21.5t93 79.5l56 -51q-31 -35 -59.5 -58.5t-58.5 -38t-62.5 -19.5 t-71.5 -5q-160 0 -250 106.5t-90 290.5z" />
<glyph unicode="d" horiz-adv-x="825" d="M80 387q0 76 13 147.5t48 128t93.5 90t148.5 33.5q66 0 125 -21.5t113 -88.5v452h81v-1128h-81v100q-53 -68 -112.5 -89t-125.5 -21q-90 0 -148.5 33.5t-92 90t-48 128t-14.5 145.5zM166 387q0 -59 8 -117.5t32.5 -104.5t71 -75t119.5 -29q74 0 118 29t67.5 75t31 104.5 t7.5 117.5q0 61 -7.5 119.5t-31 104.5t-67.5 75t-118 29t-120 -29t-70.5 -75t-32.5 -104.5t-8 -119.5z" />
<glyph unicode="e" horiz-adv-x="786" d="M82 387q0 188 82 293.5t229 105.5t231.5 -99t84.5 -279v-39h-547q0 -147 64.5 -226.5t191.5 -79.5q72 0 119 23t96 72l63 -47q-59 -59 -122.5 -90t-161.5 -31q-162 0 -246 101.5t-84 295.5zM162 436h465v13q1 49 -13 93q-16 50 -45.5 88t-73.5 61.5t-102 23.5 q-57 0 -101 -23.5t-74 -62.5t-44 -89q-12 -44 -12 -91v-13z" />
<glyph unicode="f" horiz-adv-x="425" d="M43 717v61h104v146q0 90 47.5 147t139.5 57h72v-73h-56q-121 0 -121 -129v-148h177v-61h-177v-717h-82v717h-104z" />
<glyph unicode="g" horiz-adv-x="825" d="M80 387q0 76 13 148.5t47 128t92.5 89t148.5 33.5q68 0 127 -21.5t113 -88.5v102h81v-823q0 -74 -21.5 -135.5t-63.5 -105.5t-102 -69.5t-140 -25.5q-90 0 -145.5 25.5t-118.5 79.5l55 53q25 -20 45 -35.5t44 -27t52.5 -16.5t67.5 -5q63 0 110 20.5t77 56t44.5 85 t14.5 106.5v139q-53 -68 -112.5 -89t-127.5 -21q-90 0 -147.5 33.5t-92.5 89t-48 127t-13 147.5zM160 387q0 -59 9 -117.5t33.5 -104.5t70.5 -75t120 -29t119 29t69.5 75t32 104.5t7.5 117.5q0 61 -7.5 119.5t-32 104.5t-69.5 75t-119 29t-120 -29t-70.5 -75t-33.5 -104 t-9 -120z" />
<glyph unicode="h" horiz-adv-x="835" d="M123 0v1128h84v-448q43 51 99 78.5t128 27.5q135 0 211 -76.5t76 -211.5v-498h-82v481q0 113 -55.5 173.5t-159.5 60.5q-94 0 -155.5 -65.5t-61.5 -172.5v-477h-84z" />
<glyph unicode="i" horiz-adv-x="380" d="M127 1075q0 27 17.5 45.5t43.5 18.5q27 0 44.5 -18.5t17.5 -45.5q0 -25 -17.5 -43t-44.5 -18t-44 18t-17 43zM147 0v778h84v-778h-84z" />
<glyph unicode="j" horiz-adv-x="380" d="M-25 -299h56q70 0 94.5 33t24.5 98v946h83v-948q0 -92 -46 -145.5t-140 -53.5h-72v70zM131 1075q0 27 17.5 45.5t44.5 18.5t44 -18.5t17 -45.5q0 -25 -17.5 -43t-43.5 -18q-27 0 -44.5 18t-17.5 43z" />
<glyph unicode="k" horiz-adv-x="784" d="M123 0v1128h84v-790l385 440h102l-254 -291l314 -487h-103l-268 428l-176 -205v-223h-84z" />
<glyph unicode="l" horiz-adv-x="397" d="M123 203v925h84v-923q0 -66 24.5 -98.5t94.5 -32.5h55v-74h-70q-96 0 -142 55.5t-46 147.5z" />
<glyph unicode="m" horiz-adv-x="1349" d="M123 0v778h84v-92q88 100 229 100q176 0 252 -141q88 141 262 141q135 0 210 -77.5t75 -210.5v-498h-80v481q0 113 -54 173.5t-159 60.5q-96 0 -158.5 -60.5t-62.5 -156.5v-498h-82v481q0 113 -55.5 173.5t-159.5 60.5q-98 0 -157.5 -63.5t-59.5 -170.5v-481h-84z" />
<glyph unicode="n" horiz-adv-x="835" d="M123 0v778h84v-92q86 100 227 100q135 0 211 -76.5t76 -211.5v-498h-82v481q0 113 -55.5 173.5t-159.5 60.5q-98 0 -157.5 -63.5t-59.5 -170.5v-481h-84z" />
<glyph unicode="o" horiz-adv-x="811" d="M80 387q0 76 16.5 147.5t54 128t99 90t153.5 33.5t153.5 -34.5t100.5 -91t55.5 -128t16.5 -145.5t-17.5 -145.5t-55.5 -127t-100 -90t-153 -34.5q-90 0 -152.5 34.5t-100 90t-54 127t-16.5 145.5zM160 387q0 -57 11 -115.5t40 -104.5t75 -76t117 -30q72 0 119 29t75 76 t38 104.5t10 116.5q0 57 -10 116.5t-38 105.5t-74 76t-120 30q-72 0 -118.5 -30t-74.5 -76t-39 -105.5t-11 -116.5z" />
<glyph unicode="p" horiz-adv-x="825" d="M123 -350v1128h84v-100q51 68 110.5 88t124.5 20q88 0 147.5 -33.5t94.5 -89t49.5 -127t14.5 -145.5q0 -76 -14.5 -147.5t-49.5 -128t-93.5 -90t-148.5 -33.5q-66 0 -125 21.5t-110 88.5v-452h-84zM207 391q0 -61 7 -119.5t30.5 -104.5t67.5 -75t118 -29t119 29t69.5 75 t32.5 104.5t8 119.5q0 59 -8 117.5t-32.5 104.5t-69.5 75t-119 29t-118 -29t-67.5 -75t-30.5 -104t-7 -118z" />
<glyph unicode="q" horiz-adv-x="825" d="M80 391q0 74 14.5 145.5t48 127t92 89t148.5 33.5q66 0 125 -20.5t113 -87.5v100h81v-1128h-81v452q-53 -68 -112.5 -89t-125.5 -21q-90 0 -148.5 33.5t-93.5 90t-48 128t-13 147.5zM166 391q0 -61 8 -119.5t32.5 -104.5t71 -75t119.5 -29q74 0 118 29t67.5 75t31 104.5 t7.5 119.5q0 59 -7.5 117.5t-31 104.5t-67.5 75t-118 29t-120 -29t-70.5 -75t-32.5 -104.5t-8 -117.5z" />
<glyph unicode="r" horiz-adv-x="534" d="M123 0v778h84v-104q33 53 94 82.5t131 29.5q78 0 129 -30l-49 -66q-23 12 -45.5 18.5t-52.5 6.5q-49 0 -88 -19.5t-66 -52.5t-40 -76t-13 -90v-477h-84z" />
<glyph unicode="s" horiz-adv-x="690" d="M47 100l55 62q86 -98 236 -99q104 0 160.5 40t56.5 118q0 115 -137 127l-119 14q-106 10 -163.5 61.5t-57.5 139.5q0 104 70.5 163.5t191.5 59.5q74 0 141.5 -20.5t116.5 -60.5l-55 -58q-90 68 -203 68q-86 0 -134 -40t-48 -112q0 -113 143 -127l119 -10q45 -4 84 -16.5 t68.5 -35t46 -60.5t16.5 -93q0 -109 -79 -171t-214 -62q-184 0 -295 112z" />
<glyph unicode="t" horiz-adv-x="458" d="M37 717v61h106v248h82v-248h174v-61h-174v-514q0 -61 30 -95t89 -34h55v-74h-67q-94 0 -141.5 56.5t-47.5 148.5v512h-106z" />
<glyph unicode="u" horiz-adv-x="837" d="M113 281v497h84v-481q0 -115 55 -174.5t160 -59.5q98 0 157.5 63.5t59.5 170.5v481h84v-778h-84v92q-86 -100 -230 -100q-133 0 -209.5 76.5t-76.5 212.5z" />
<glyph unicode="v" horiz-adv-x="745" d="M45 778h92l236 -680l235 680h92l-288 -778h-80z" />
<glyph unicode="w" horiz-adv-x="1202" d="M45 778h92l201 -680l223 680h80l223 -680l201 680h92l-250 -778h-84l-223 649l-221 -649h-82z" />
<glyph unicode="x" horiz-adv-x="675" d="M31 0l264 397l-250 381h98l195 -313l192 313h103l-252 -381l262 -397h-98l-207 328l-205 -328h-102z" />
<glyph unicode="y" horiz-adv-x="745" d="M45 778h92l236 -680l235 680h92l-364 -987q-23 -68 -75 -104.5t-128 -36.5h-39v74h29q33 0 55.5 5t38.5 17t27.5 32.5t21.5 49.5l66 172z" />
<glyph unicode="z" horiz-adv-x="708" d="M76 0v78l471 627h-445v73h531v-80l-473 -624h473v-74h-557z" />
<glyph unicode="{" horiz-adv-x="509" d="M80 539v69h31q23 0 40 10.5t27 20.5q31 27 31 98v334q0 66 9 97.5t32 56.5q43 43 156 43h24v-74h-22q-45 0 -63.5 -4t-31.5 -19q-12 -12 -17 -34.5t-5 -67.5v-334q0 -61 -23.5 -98t-77.5 -64q53 -25 77 -60.5t24 -100.5v-332q0 -47 5 -70.5t17 -36.5q12 -12 30.5 -16 t64.5 -4h22v-72h-24q-59 0 -96.5 9.5t-59.5 31.5q-23 25 -32 57.5t-9 98.5v332q0 70 -31 98q-10 12 -27.5 21.5t-39.5 9.5h-31z" />
<glyph unicode="|" horiz-adv-x="509" d="M213 -119v1387h84v-1387h-84z" />
<glyph unicode="}" horiz-adv-x="509" d="M80 -47h20q45 0 64.5 4t32.5 16q10 12 16 36t6 71v332q0 66 23.5 101.5t74.5 59.5q-51 27 -74.5 64t-23.5 98v334q0 45 -6 67.5t-16 34.5q-12 14 -32 18.5t-65 4.5h-20v74h22q59 0 96.5 -10.5t61.5 -32.5q23 -25 32 -56.5t9 -97.5v-334q0 -72 31 -98q10 -10 27.5 -20.5 t41.5 -10.5h29v-69h-29q-25 0 -42 -9.5t-27 -21.5q-31 -29 -31 -98v-332q0 -66 -9 -98.5t-32 -57.5q-25 -23 -61.5 -32t-96.5 -9h-22v72z" />
<glyph unicode="~" horiz-adv-x="829" d="M84 410q33 33 57.5 52t46 30.5t41 14.5t43.5 3q41 0 81 -15.5t83 -33.5q35 -16 63.5 -26.5t61.5 -10.5t58.5 12.5t72.5 61.5l51 -52q-33 -33 -57 -52t-46 -30.5t-41 -14.5t-42 -3q-41 0 -81 15.5t-85 35.5q-35 14 -62.5 24.5t-58.5 10.5q-35 0 -60.5 -11t-74.5 -59z" />
<glyph unicode="&#xa2;" horiz-adv-x="802" d="M104 535q0 154 73 250t202 112v113h70v-113q61 -2 116.5 -25.5t108.5 -83.5l-56 -51q-45 47 -83.5 67.5t-85.5 24.5v-587q47 4 86.5 24.5t82.5 67.5l54 -47v-4q-53 -59 -105.5 -83t-117.5 -28v-139h-70v143q-129 16 -202 110.5t-73 248.5zM184 535q0 -49 10.5 -96.5 t33 -87.5t59.5 -67.5t92 -37.5v577q-104 -18 -149.5 -101t-45.5 -187z" />
<glyph unicode="&#xa3;" horiz-adv-x="772" d="M49 496v59h101v172q0 145 87 230t236 85q76 0 135.5 -22.5t108.5 -65.5l-60 -59q-35 31 -73.5 54.5t-110.5 23.5q-115 0 -176 -67.5t-61 -190.5v-160h239v-59h-239v-422h479v-74h-565v496h-101z" />
<glyph unicode="&#xa5;" horiz-adv-x="817" d="M45 1034h92l277 -520l270 520h90l-237 -442h163v-60h-194l-53 -102v-61h247v-58h-247v-311h-86v311h-252v58h252v61l-58 102h-194v60h164z" />
<glyph unicode="&#xa9;" horiz-adv-x="1314" d="M104 543q0 115 43 216t119 176t176.5 119t214.5 44q117 0 217.5 -44t175 -119t117.5 -176t43 -216t-43 -216.5t-117.5 -176t-175 -118.5t-217.5 -44q-115 0 -215 44t-176 118.5t-119 176t-43 216.5zM180 543q0 -98 38 -185.5t103.5 -154t152.5 -105.5t183 -39 q98 0 185.5 39t153 105.5t104.5 154t39 185.5t-39 185t-104.5 153.5t-152.5 105.5t-186 39q-96 0 -183 -39t-152.5 -105.5t-103.5 -153.5t-38 -185zM393 543q0 66 15.5 123t49.5 100t84 68.5t122 25.5q66 0 110.5 -19.5t95.5 -62.5l-53 -51q-41 41 -74.5 53.5t-78.5 12.5 q-57 0 -95.5 -20.5t-62 -54.5t-32.5 -80t-9 -95t9 -95.5t32.5 -80t61.5 -54t96 -20.5q45 0 78.5 12t74.5 53l51 -49v-4q-47 -41 -93 -60.5t-111 -19.5q-72 0 -122 25.5t-84 68.5t-49.5 100.5t-15.5 123.5z" />
<glyph unicode="&#xab;" horiz-adv-x="849" d="M68 428l317 315v-108l-211 -207l211 -211v-104zM401 428l318 315v-108l-211 -207l211 -211v-104z" />
<glyph unicode="&#xad;" horiz-adv-x="688" d="M133 387v76h422v-76h-422z" />
<glyph unicode="&#xae;" horiz-adv-x="1314" d="M104 543q0 115 43 216t119 176t176.5 119t214.5 44q117 0 217.5 -44t175 -119t117.5 -176t43 -216t-43 -216.5t-117.5 -176t-175 -118.5t-217.5 -44q-115 0 -215 44t-176 118.5t-119 176t-43 216.5zM178 543q0 -98 38 -186.5t103.5 -155t152.5 -105.5t185 -39t185.5 39 t154 105.5t104.5 155t38 186.5t-38 186t-104.5 153.5t-153.5 104.5t-186 39q-98 0 -185 -39t-152.5 -104.5t-103.5 -153.5t-38 -186zM483 238v612h197q78 0 134 -51t56 -131q0 -66 -37.5 -108t-97.5 -62l152 -260h-86l-148 251h-98v-251h-72zM555 557h117q53 0 90 31t37 80 q0 51 -37 84.5t-90 33.5h-117v-229z" />
<glyph unicode="&#xbb;" horiz-adv-x="849" d="M133 113v104l209 211l-209 207v108l316 -315zM465 113v104l211 211l-211 207v108l317 -315z" />
<glyph unicode="&#xbc;" horiz-adv-x="1167" d="M72 854v80l121 100h71v-622h-71v546zM258 0l508 1034h82l-506 -1034h-84zM688 96v58l238 471h73l-233 -469h182v176h72v-176h80v-60h-80v-96h-72v96h-260z" />
<glyph unicode="&#xbd;" horiz-adv-x="1167" d="M72 854v80l121 100h71v-622h-71v546zM236 0l505 1034h82l-506 -1034h-81zM731 0v61l258 310q16 23 24.5 43t8.5 43q0 51 -28.5 80.5t-80.5 29.5q-43 0 -77.5 -25.5t-34.5 -86.5h-70q0 78 48 126t134 48q82 0 132.5 -47t50.5 -125q0 -37 -12.5 -66t-41.5 -63l-223 -267 h277v-61h-365z" />
<glyph unicode="&#xbe;" horiz-adv-x="1167" d="M72 575h71q4 -59 41 -84.5t82 -25.5q53 0 88 31.5t35 91.5q0 53 -30.5 82.5t-96.5 29.5h-14v62h14q59 0 87 28.5t28 77.5q0 55 -33 83t-80 28q-102 0 -112 -100h-72q8 76 59 119.5t125 43.5q84 0 135.5 -46t51.5 -126q0 -47 -21.5 -81.5t-64.5 -55.5q94 -32 94 -145 q0 -92 -54.5 -136t-138.5 -44q-78 0 -134 39.5t-60 127.5zM369 0l508 1034h81l-509 -1034h-80zM727 96v58l231 471h78l-233 -469h184v176h70v-176h78v-60h-78v-96h-70v96h-260z" />
<glyph unicode="&#xd7;" horiz-adv-x="829" d="M115 176l252 250l-252 250l51 47l248 -248l250 248l51 -47l-250 -250l250 -250l-51 -51l-250 250l-248 -250z" />
<glyph unicode="&#xf7;" horiz-adv-x="829" d="M84 387v76h659v-76h-659zM346 156q0 29 19.5 48t48.5 19t48 -19.5t19 -47.5q0 -29 -19.5 -48.5t-47.5 -19.5q-29 0 -48.5 19.5t-19.5 48.5zM346 692q0 29 19.5 48.5t48.5 19.5t48 -19.5t19 -48.5t-19.5 -48t-47.5 -19q-29 0 -48.5 19t-19.5 48z" />
<glyph unicode="&#xe01;" horiz-adv-x="888" d="M61 621q123 215 365 215q174 0 257 -84t83 -238v-514h-86v514q0 133 -69.5 189.5t-186.5 56.5q-70 0 -141.5 -30t-124.5 -105l65 -101v-524h-86v512z" />
<glyph unicode="&#xe02;" horiz-adv-x="763" d="M74 758q25 35 64.5 54t82.5 19q78 0 121 -43t43 -114q0 -41 -20.5 -75t-48 -65.5t-56.5 -60.5t-43 -57q-14 -27 -15 -49.5t-1 -32.5v-78q0 -88 44 -140.5t132 -52.5t129 52.5t41 140.5v571h90v-575q0 -59 -19.5 -107.5t-53.5 -83t-82 -54t-105 -19.5q-121 0 -190.5 73.5 t-73.5 190.5v96q0 35 10 63.5t20 43.5q16 25 43 50t52.5 53t44 56.5t18.5 59.5q0 37 -23.5 58.5t-60.5 21.5q-23 0 -43 -11.5t-33 -27.5z" />
<glyph unicode="&#xe03;" horiz-adv-x="763" d="M18 782l52 54l84 -64l18 16q66 53 126 48t94 -44.5t30 -104t-66 -130.5l-129 -137q-20 -20 -23 -45t-3 -47v-72q0 -86 42 -139.5t134 -53.5q90 0 130 52.5t40 140.5v571h90v-575q0 -123 -71.5 -193.5t-188.5 -70.5q-66 0 -116 20.5t-83 56t-49 84t-16 103.5v90 q0 76 34 113l168 170q31 31 34 64.5t-14.5 53t-49 20.5t-70.5 -32l-47 -39q-4 -6 -14.5 -6t-16.5 6z" />
<glyph unicode="&#xe04;" horiz-adv-x="901" d="M123 0v528q0 78 24.5 136.5t68.5 96.5t104.5 56.5t132.5 18.5q152 0 240.5 -78t88.5 -230v-528h-86v528q0 123 -63.5 177.5t-179.5 54.5q-117 0 -180.5 -54.5t-63.5 -177.5v-82q16 16 40.5 26.5t69.5 10.5h146v-69h-129q-74 0 -100.5 -35t-26.5 -105v-274h-86z" />
<glyph unicode="&#xe05;" horiz-adv-x="919" d="M123 0v539q0 104 53 184t160 111l123 -125l125 125q102 -23 157.5 -105t55.5 -190v-539h-86v539q0 78 -26 126t-77 76l-114 -106q-33 -29 -66 0l-115 106q-51 -29 -76.5 -78t-25.5 -124v-90q16 16 40.5 25t70.5 9h145v-69h-129q-74 0 -100.5 -35t-26.5 -105v-274h-88z " />
<glyph unicode="&#xe06;" horiz-adv-x="874" d="M29 782l49 54l88 -64l18 16q63 53 125 47t96.5 -45.5t30.5 -104t-69 -128.5l-129 -137q-23 -25 -26 -56.5t-3 -41.5v-7q0 -53 18.5 -99t51 -80t76.5 -52t94 -18q111 0 162 62t51 169v532h90v-532q0 -139 -80 -223t-223 -84q-72 0 -135.5 28.5t-102.5 79.5v-98h-88v326v16 q0 76 37 113l166 170q31 31 33.5 64.5t-13.5 53t-49 20.5t-72 -32l-45 -39q-18 -14 -33 0z" />
<glyph unicode="&#xe07;" horiz-adv-x="624" d="M-4 152l76 36q16 -57 59 -91t111 -34q90 0 131 51.5t41 137.5v504h-119v71h207v-575q0 -127 -67.5 -195.5t-192.5 -68.5q-100 0 -158.5 44t-87.5 120z" />
<glyph unicode="&#xe08;" horiz-adv-x="745" d="M6 666q35 84 112 127t185 43q141 0 230.5 -77t89.5 -231v-528h-88v274q0 70 -26 105t-99 35h-142v71h158q45 0 68.5 -10t40.5 -26v79q0 109 -61.5 170.5t-170.5 61.5q-74 0 -135.5 -34t-85.5 -99z" />
<glyph unicode="&#xe09;" horiz-adv-x="874" d="M115 291v201h88v-201q0 -104 56 -164.5t157 -60.5q113 0 179.5 71.5t66.5 177.5v220q0 113 -65 169t-175 56q-74 0 -138.5 -34t-86.5 -101l-80 41q35 84 115.5 127t189.5 43q70 0 130 -18.5t104 -55.5t69 -94.5t25 -132.5v-535h-88v100q-94 -111 -246 -110 q-133 0 -217 80t-84 221z" />
<glyph unicode="&#xe0a;" horiz-adv-x="768" d="M74 766q63 66 155 65q78 0 123 -43t45 -114q0 -41 -14 -72t-45 -63l-111 -117q-20 -23 -23 -53.5t-3 -40.5v-78q0 -84 39 -135.5t133 -51.5q86 0 130 47.5t44 135.5v321q0 41 -25.5 68t-48.5 43q-16 8 -21.5 16t17.5 33l223 225l60 -57l-193 -190q20 -16 37 -37 q14 -18 26.5 -43t12.5 -58v-325q0 -117 -69.5 -185.5t-192.5 -68.5q-129 0 -192.5 70.5t-67.5 187.5v96q0 35 8 65.5t26 49.5l132 131q20 25 30 44t10 42q0 47 -26.5 67.5t-65.5 20.5q-23 0 -47 -13.5t-43 -29.5z" />
<glyph unicode="&#xe0b;" horiz-adv-x="794" d="M27 782l47 54l88 -64l18 16q68 55 131.5 46t98 -55t28.5 -115.5t-76 -131.5l-106 -110q-23 -23 -26 -54.5t-3 -39.5v-78q0 -84 40 -135.5t134 -51.5q86 0 130 47.5t44 135.5v321q0 41 -26.5 68t-50.5 43q-14 8 -19.5 16t17.5 33l217 225l57 -57l-182 -190q20 -16 37 -37 q14 -18 26.5 -43t12.5 -58v-325q0 -117 -70 -185.5t-193 -68.5q-129 0 -192.5 70.5t-67.5 187.5v96q0 35 8.5 64.5t28.5 50.5l144 147q35 35 37.5 71t-15.5 58.5t-51 25.5t-70 -28l-47 -39q-6 -6 -16 -6t-17 6z" />
<glyph unicode="&#xe0c;" horiz-adv-x="1378" d="M61 621q123 215 365 215q174 0 257 -82t83 -236v-211q0 -106 62.5 -173.5t158.5 -67.5q86 0 134 58t48 171v532h86v-530q0 -154 -73.5 -230.5t-194.5 -76.5q-70 0 -130 30.5t-91 79.5v-100h-86v518q0 129 -66.5 185.5t-189.5 56.5q-70 0 -141.5 -30t-124.5 -105l65 -101 v-334q0 -51 15.5 -81.5t74.5 -30.5h60v-78h-76q-86 0 -123 50t-37 138v324z" />
<glyph unicode="&#xe0d;" horiz-adv-x="1363" d="M61 621q123 215 365 215q174 0 257 -82t83 -236v-147q0 -119 49 -184.5t146 -65.5q96 0 145 65.5t49 184.5v456h86v-475q0 -61 -15.5 -117.5t-48 -98.5t-86 -66.5t-126.5 -24.5q-143 0 -214 80t-71 227v166q0 129 -66.5 185.5t-189.5 56.5q-70 0 -141.5 -30t-124.5 -105 l65 -101v-334q0 -51 15.5 -81.5t74.5 -30.5h60v-78h-76q-86 0 -123 50t-37 138v324zM674 0h78q0 -72 63 -72h426v-69h-442q-23 0 -44.5 6t-40 21.5t-29.5 43t-11 70.5z" />
<glyph unicode="&#xe0e;" horiz-adv-x="923" d="M70 78q39 -2 60.5 10t30.5 32.5t10 44t1 44.5v303l-76 109q123 215 365 215q174 0 257 -82t85 -236v-717q0 -29 -13.5 -54.5t-36 -40.5t-52 -18t-62.5 13l-188 90q-18 8 -37 0l-197 -102l-43 55l223 115q23 10 35 10t35 -10l205 -92q16 -8 29.5 3t13.5 31v717 q0 131 -70 186.5t-186 55.5q-70 0 -139.5 -30t-126.5 -105l67 -101v-336q0 -63 -18.5 -101t-46 -57.5t-58.5 -24.5t-53 -5z" />
<glyph unicode="&#xe0f;" horiz-adv-x="925" d="M70 78q39 -2 60.5 10t30.5 32.5t10 44t1 44.5v303l-76 109q123 215 365 215q174 0 258 -82t84 -236v-713q0 -31 -13.5 -57.5t-37 -42.5t-53 -18t-60.5 16l-145 86q-12 8 -27 0l-135 -86q-23 -14 -38 -13t-32 13l-168 125l66 39l129 -94q10 -8 22 0l135 86q18 12 33 11 t35 -11l148 -86q16 -10 34.5 -2t18.5 34v713q0 131 -70 186.5t-186 55.5q-70 0 -138.5 -29t-127.5 -106l67 -101v-336q0 -63 -18.5 -101t-46 -57.5t-58.5 -24.5t-53 -5z" />
<glyph unicode="&#xe10;" horiz-adv-x="745" d="M6 666q35 84 112 127t185 43q111 0 189 -48l163 166l60 -57l-162 -160q70 -80 70 -209v-528h-88v274q0 70 -26 105t-99 35h-142v71h158q45 0 68.5 -10t40.5 -26v79q0 109 -61.5 170.5t-170.5 61.5q-74 0 -135.5 -34t-85.5 -99zM57 -160l54 39l114 -90q6 -4 13 0l75 72 q23 18 48.5 17t44.5 -17l83 -72q2 -4 9.5 -7t15.5 -3t14.5 6t6.5 25v110h88v-115q0 -29 -14.5 -52t-38 -36.5t-53.5 -11.5t-60 27l-88 75q-10 10 -21 0l-78 -73q-37 -33 -80 0z" />
<glyph unicode="&#xe11;" horiz-adv-x="899" d="M35 782l51 54l86 -64l18 16q43 35 85 44.5t76 -1t58.5 -36t30.5 -62.5l109 105q104 -2 165.5 -63.5t61.5 -182.5v-592h-86v586q0 72 -25.5 118t-89.5 56l-329 -336q-23 -23 -25 -54.5t-2 -41.5v-328h-90v342q0 72 37 113l168 170q31 31 33 64.5t-14.5 53t-48.5 20.5 t-71 -32l-47 -39q-14 -14 -32 0z" />
<glyph unicode="&#xe12;" horiz-adv-x="1370" d="M100 215v324q0 104 53.5 184t159.5 111l115 -125l117 125q102 -23 157.5 -105t55.5 -190v-232q0 -106 62.5 -173.5t158.5 -67.5q86 0 134 54t48 167v540h86v-538q0 -154 -73.5 -226.5t-194.5 -72.5q-70 0 -130.5 30.5t-90.5 79.5v-100h-86v539q0 76 -27 125t-78 77 l-104 -106q-14 -16 -32.5 -16.5t-33.5 16.5l-104 106q-51 -29 -78 -77t-27 -125v-322q0 -70 27 -104.5t98 -34.5h62v-78h-76q-100 0 -149.5 58.5t-49.5 156.5z" />
<glyph unicode="&#xe13;" horiz-adv-x="1378" d="M61 621q123 215 365 215q174 0 257 -82t83 -236v-231q0 -113 48 -167t134 -54q96 0 158.5 67.5t62.5 173.5v518h86v-825h-86v100q-31 -49 -91 -79.5t-130 -30.5q-121 0 -194.5 72.5t-73.5 226.5v229q0 129 -66.5 185.5t-189.5 56.5q-70 0 -141.5 -30t-124.5 -105l65 -101 v-334q0 -51 15.5 -81.5t74.5 -30.5h60v-78h-76q-86 0 -123 50t-37 138v324z" />
<glyph unicode="&#xe14;" horiz-adv-x="903" d="M123 215v313q4 160 93 234t237 74q152 0 240.5 -78t88.5 -230v-528h-86v528q0 123 -67.5 177.5t-175.5 54.5q-111 0 -177.5 -54.5t-66.5 -177.5v-311q0 -66 26.5 -102.5t86.5 -36.5h75v-78h-75q-100 0 -149.5 58.5t-49.5 156.5z" />
<glyph unicode="&#xe15;" horiz-adv-x="903" d="M123 215v324q0 104 53 184t160 111l115 -125l116 125q102 -23 157.5 -105t55.5 -190v-539h-86v539q0 76 -26.5 125t-77.5 77l-105 -106q-14 -16 -32.5 -16.5t-32.5 16.5l-105 106q-51 -29 -78.5 -77t-27.5 -125v-322q0 -66 26.5 -102.5t86.5 -36.5h75v-78h-75 q-100 0 -149.5 58.5t-49.5 156.5z" />
<glyph unicode="&#xe16;" horiz-adv-x="888" d="M61 621q123 215 365 215q174 0 257 -82t83 -236v-518h-86v518q0 129 -66.5 185.5t-189.5 56.5q-70 0 -141.5 -30t-124.5 -105l65 -101v-334q0 -51 15.5 -81.5t74.5 -30.5h60v-78h-76q-86 0 -123 50t-37 138v324z" />
<glyph unicode="&#xe17;" horiz-adv-x="880" d="M123 0v827h88v-98q92 106 244 107q141 0 222 -82t81 -226v-528h-86v528q0 111 -58.5 171.5t-158.5 60.5q-104 0 -174 -65.5t-70 -178.5v-516h-88z" />
<glyph unicode="&#xe18;" horiz-adv-x="794" d="M84 627q0 47 22.5 86t61.5 66.5t93 42t118 14.5q86 0 161.5 -22.5t129.5 -63.5l-58 -58q-49 35 -105 52.5t-128 17.5q-96 0 -153.5 -35t-57.5 -100q0 -109 170 -123l135 -12q51 -4 94 -19.5t76 -43.5t51.5 -71t18.5 -102q0 -55 -23.5 -104.5t-66.5 -85t-104.5 -56 t-137.5 -20.5q-47 0 -94 11t-87 35.5t-64.5 61.5t-24.5 88v170h86v-168q0 -27 15 -49t42 -38.5t58.5 -25.5t66.5 -9q123 0 185.5 52t62.5 138q0 66 -38 109t-118 49l-139 14q-248 18 -248 199z" />
<glyph unicode="&#xe19;" horiz-adv-x="880" d="M123 299v528h86v-528q0 -111 58.5 -171t158.5 -60q104 0 174 65.5t70 177.5v516h88v-827h-88v98q-92 -106 -244 -106q-141 0 -222 82t-81 225z" />
<glyph unicode="&#xe1a;" horiz-adv-x="880" d="M123 297v530h88v-532q0 -117 63.5 -173t165.5 -56t166 56t64 173v532h88v-530q0 -76 -24.5 -133.5t-67.5 -96t-100.5 -58t-125.5 -19.5q-141 0 -229 81t-88 226z" />
<glyph unicode="&#xe1b;" horiz-adv-x="880" d="M123 297v530h88v-532q0 -117 63.5 -173t165.5 -56t166 56t64 173v930h88v-928q0 -76 -24.5 -133.5t-67.5 -96t-100.5 -58t-125.5 -19.5q-141 0 -229 81t-88 226z" />
<glyph unicode="&#xe1c;" horiz-adv-x="903" d="M123 289v323q0 98 49 156.5t150 58.5h75v-77h-75q-59 0 -86 -37t-27 -103v-321q0 -78 27.5 -126t78.5 -77l105 107q14 16 32.5 16t32.5 -16l105 -107q51 29 77.5 78t26.5 125v538h86v-538q0 -109 -55 -191t-158 -104l-116 125l-115 -125q-106 31 -159.5 110.5 t-53.5 184.5z" />
<glyph unicode="&#xe1d;" horiz-adv-x="903" d="M123 289v323q0 98 49 156.5t150 58.5h75v-77h-75q-59 0 -86 -37t-27 -103v-321q0 -78 27.5 -126t78.5 -77l105 107q14 16 32.5 16t32.5 -16l105 -107q51 29 76.5 78t25.5 125v936h88v-936q0 -109 -55 -191t-158 -104l-116 125l-115 -125q-106 31 -159.5 110.5 t-53.5 184.5z" />
<glyph unicode="&#xe1e;" horiz-adv-x="1089" d="M74 827h90l102 -700l244 700h70l243 -700l105 700h88l-135 -827h-88l-248 684l-248 -684h-90z" />
<glyph unicode="&#xe1f;" horiz-adv-x="1089" d="M74 827h90l102 -700l244 700h70l243 -700l168 1098h88l-198 -1225h-88l-248 684l-248 -684h-90z" />
<glyph unicode="&#xe20;" horiz-adv-x="925" d="M70 78q39 -2 60.5 10t30.5 32.5t10 44t1 44.5v303l-76 109q123 215 365 215q174 0 257 -82t85 -236v-518h-88v518q0 131 -70 186.5t-186 55.5q-70 0 -139.5 -29t-126.5 -104l67 -103v-336q0 -63 -18.5 -101t-46 -57.5t-58.5 -24.5t-53 -5z" />
<glyph unicode="&#xe21;" horiz-adv-x="880" d="M123 0v827h88v-516q0 -113 69.5 -178t174.5 -65q100 0 158.5 60t58.5 171v528h86v-528q0 -143 -81 -225t-222 -82q-152 0 -244 106v-98h-88z" />
<glyph unicode="&#xe22;" horiz-adv-x="874" d="M86 246q0 66 32 117t105 79q-72 20 -102.5 67.5t-34.5 106.5q0 90 50 150.5t149 60.5h110v-77h-94q-74 0 -101.5 -34t-27.5 -98q0 -66 53.5 -103.5t169.5 -37.5v-69q-117 0 -170 -45.5t-53 -124.5q0 -72 67.5 -122t178.5 -50q72 0 119 20t74.5 56t39 86.5t11.5 109.5v489 h90v-489q0 -162 -75 -256t-259 -94q-109 0 -174.5 30.5t-100 72.5t-46 85t-11.5 70z" />
<glyph unicode="&#xe23;" horiz-adv-x="702" d="M49 106l60 62q25 -25 47 -44.5t48.5 -32.5t59.5 -19t76 -6q119 0 165 49t46 116q0 39 -12.5 66t-34 44t-50 28.5t-61.5 17.5l-67 14q-117 25 -179.5 72t-62.5 139t64.5 158t193.5 66q86 0 143.5 -22.5t110.5 -63.5l-59 -58q-47 35 -87 52.5t-108 17.5q-92 0 -133 -43 t-41 -107q0 -59 40 -85.5t124 -47.5l80 -18q49 -10 90 -26.5t71.5 -43t48 -66t17.5 -94.5q0 -49 -18.5 -92t-55.5 -76.5t-92 -53t-129 -19.5q-53 0 -95 7t-76 21.5t-63.5 37t-60.5 50.5z" />
<glyph unicode="&#xe24;" horiz-adv-x="888" d="M61 621q123 215 365 215q174 0 257 -82t83 -236v-827h-86v827q0 129 -66.5 185.5t-189.5 56.5q-70 0 -141.5 -30t-124.5 -105l65 -101v-334q0 -51 15.5 -81.5t74.5 -30.5h60v-78h-76q-86 0 -123 50t-37 138v324z" />
<glyph unicode="&#xe25;" horiz-adv-x="825" d="M59 233q0 115 76 183.5t213 68.5h266v72q0 100 -53 151.5t-180 51.5q-84 0 -135 -24.5t-103 -80.5l-65 58q29 29 59.5 52t65.5 38.5t79 24t99 8.5q166 0 243.5 -70t77.5 -201v-565h-88v410h-258q-106 0 -158.5 -45.5t-52.5 -128.5q0 -82 52.5 -126t164.5 -44v-76 q-61 2 -116.5 13t-97.5 39t-65.5 74t-23.5 117z" />
<glyph unicode="&#xe26;" horiz-adv-x="925" d="M70 78q39 -2 60.5 10t30.5 32.5t10 44t1 44.5v303l-76 109q123 215 365 215q174 0 257 -82t85 -236v-825h-88v825q0 131 -70 186.5t-186 55.5q-70 0 -139.5 -29t-126.5 -104l67 -103v-336q0 -63 -18.5 -101t-46 -57.5t-58.5 -24.5t-53 -5z" />
<glyph unicode="&#xe27;" horiz-adv-x="696" d="M39 676q39 76 111.5 118t158.5 42q141 0 220 -90.5t79 -237.5v-186q0 -68 -17.5 -127.5t-54 -104.5t-93 -71.5t-134.5 -26.5q-70 0 -132 26.5t-103 77.5l59 54q29 -39 77 -59.5t99 -20.5q111 0 162 73.5t51 180.5v184q0 51 -11 96t-36.5 79t-66.5 54.5t-99 20.5 q-63 0 -117.5 -32t-80.5 -89z" />
<glyph unicode="&#xe28;" horiz-adv-x="911" d="M123 0v528q0 78 24.5 136.5t68.5 96.5t104.5 56.5t132.5 18.5q119 0 198 -50l156 158l59 -57l-153 -152q70 -76 69 -207v-528h-86v528q0 123 -63.5 177.5t-179.5 54.5q-117 0 -180.5 -54.5t-63.5 -177.5v-82q16 16 40.5 26.5t69.5 10.5h146v-69h-129q-74 0 -100.5 -35 t-26.5 -105v-274h-86z" />
<glyph unicode="&#xe29;" horiz-adv-x="905" d="M123 297v530h88v-532q0 -117 63.5 -173t165.5 -56t166 56t64 173v119h-146q-23 0 -44 6t-39.5 21.5t-30 43t-11.5 70.5h80q0 -72 62 -72h129v344h88v-344h106v-69h-106v-117q0 -76 -24.5 -133.5t-67.5 -96t-100.5 -58t-125.5 -19.5q-141 0 -229 81t-88 226z" />
<glyph unicode="&#xe2a;" horiz-adv-x="825" d="M59 233q0 115 76 183.5t213 68.5h266v72q0 100 -53 151.5t-180 51.5q-84 0 -135 -24.5t-103 -80.5l-65 58q29 29 59.5 52t65.5 38.5t79 24t99 8.5q125 0 205 -45l151 153l60 -57l-150 -148q55 -66 55 -174v-565h-88v410h-258q-106 0 -158.5 -45.5t-52.5 -128.5 q0 -82 52.5 -126t164.5 -44v-76q-61 2 -116.5 13t-97.5 39t-65.5 74t-23.5 117z" />
<glyph unicode="&#xe2b;" horiz-adv-x="880" d="M123 0v827h88v-405l508 416l53 -66l-168 -137q78 -37 116 -114t38 -165v-356h-86v356q0 86 -34 144.5t-97 83.5l-330 -269v-315h-88z" />
<glyph unicode="&#xe2c;" horiz-adv-x="1099" d="M74 827h90l102 -700l244 700h70l243 -700l76 512q14 111 -115 113v75h70q57 0 86 27t39 70l18 67h90l-26 -94q-16 -55 -48 -85t-77 -46q61 -49 49 -125l-104 -641h-88l-248 684l-248 -684h-90z" />
<glyph unicode="&#xe2d;" horiz-adv-x="831" d="M92 483h305v-69h-221q0 -41 2 -90.5t12 -83.5q20 -66 77 -119t151 -53q74 0 121 28.5t74.5 75.5t38 110.5t10.5 131.5q0 61 -11.5 122.5t-40 111.5t-82 81t-135.5 31q-74 0 -124 -23.5t-103 -77.5l-68 54q66 61 131.5 93t167.5 32q172 0 262.5 -106.5t90.5 -317.5 q0 -199 -88.5 -311.5t-243.5 -112.5q-117 0 -196 61.5t-111 171.5q-6 18 -10.5 50t-5.5 68t-2 74t-1 68z" />
<glyph unicode="&#xe2e;" horiz-adv-x="823" d="M88 483h305v-69h-221q0 -41 2 -90.5t12 -83.5q20 -66 76.5 -119t151.5 -53q74 0 121 28.5t74.5 75.5t37.5 110.5t10 131.5q0 61 -11 122.5t-39.5 111.5t-82 81t-135.5 31q-74 0 -124 -23.5t-103 -77.5l-68 54q66 61 131.5 93t167.5 32q106 0 187 -45l159 161l60 -57 l-156 -154q102 -109 102 -329q0 -199 -88 -311.5t-243 -112.5q-117 0 -196 61t-112 172q-6 18 -10 50t-5 68t-2 74t-1 68z" />
<glyph unicode="&#xe2f;" horiz-adv-x="837" d="M80 600q0 98 49 162.5t150 64.5h75v-77h-61q-72 0 -99.5 -41t-27.5 -109q0 -100 59.5 -154.5t169.5 -54.5q229 0 230 240v196h90v-827h-90v416q-16 -23 -42 -41.5t-57.5 -31.5t-65.5 -20.5t-65 -7.5q-143 0 -229 75t-86 210z" />
<glyph unicode="&#xe30;" horiz-adv-x="489" d="M74 289h82q0 -72 59 -72h178v-70h-194q-23 0 -44.5 6.5t-40 21.5t-29.5 43t-11 71zM74 688h82q0 -72 59 -72h178v-69h-194q-23 0 -44.5 6t-40 21.5t-29.5 43t-11 70.5z" />
<glyph unicode="&#xe31;" d="M-467 1153h84q0 -37 12.5 -54.5t44.5 -17.5h359v-69h-375q-23 0 -44.5 6t-39.5 21.5t-29.5 43t-11.5 70.5z" />
<glyph unicode="&#xe32;" horiz-adv-x="608" d="M4 725q33 53 91.5 82t140.5 29q125 0 187 -69t62 -196v-571h-86v567q0 88 -35.5 140.5t-127.5 52.5q-57 0 -100.5 -20.5t-63.5 -59.5z" />
<glyph unicode="&#xe33;" horiz-adv-x="608" d="M-301 1122q0 55 39 94t94 39q53 0 92 -38.5t39 -94.5q0 -53 -39 -92t-92 -39q-55 0 -94 39t-39 92zM-236 1122q0 -29 19.5 -47t48.5 -18t48.5 18.5t19.5 46.5q0 29 -19.5 48.5t-48.5 19.5t-48.5 -19.5t-19.5 -48.5zM4 725q33 53 91.5 82t140.5 29q125 0 187 -69t62 -196 v-571h-86v567q0 88 -35.5 140.5t-127.5 52.5q-57 0 -100.5 -20.5t-63.5 -59.5z" />
<glyph unicode="&#xe34;" d="M-758 1012v69h635v-69h-635z" />
<glyph unicode="&#xe35;" d="M-758 1012v69h547v144h88v-213h-635z" />
<glyph unicode="&#xe36;" d="M-756 1012v69h410q-6 8 -11 23.5t-5 30.5q0 53 35.5 89t86.5 36q53 0 89 -36t36 -89q0 -51 -35.5 -87t-89.5 -36h-516zM-299 1135q0 -25 18.5 -42.5t40.5 -17.5q27 0 45.5 17.5t18.5 42.5q0 27 -18.5 44t-45.5 17q-23 0 -41 -17t-18 -44z" />
<glyph unicode="&#xe37;" d="M-762 1012v69h400v144h77v-144h84v144h78v-213h-639z" />
<glyph unicode="&#xe38;" d="M-295 -133h35q76 0 106.5 -26.5t30.5 -119.5v-112h-88v110q0 47 -12.5 59.5t-46.5 12.5h-25v76z" />
<glyph unicode="&#xe39;" d="M-500 -133h49q59 0 80 -23.5t21 -81.5v-10q0 -23 15.5 -47t55.5 -24q43 0 56.5 24.5t13.5 46.5v115h86v-115q0 -66 -44 -104.5t-112 -38.5q-72 0 -113.5 38.5t-41.5 104.5q0 25 -8.5 33t-30.5 8h-27v74z" />
<glyph unicode="&#xe3a;" d="M-236 -201q0 29 19.5 48.5t48.5 19.5t48.5 -19.5t19.5 -48.5t-19.5 -48t-48.5 -19t-48.5 19t-19.5 48z" />
<glyph unicode="&#xe3e;" />
<glyph unicode="&#xe3f;" horiz-adv-x="976" d="M143 0v1034h287v96h86v-96h31q68 0 125 -18.5t100 -52t66.5 -85t23.5 -114.5q0 -80 -43 -143.5t-123 -90.5q86 -29 134.5 -93t48.5 -154q0 -141 -87 -212t-233 -71h-43v-100h-86v100h-287zM231 74h199v418h-199v-418zM231 565h199v398h-199v-398zM516 74h33 q111 0 177.5 55.5t66.5 153.5t-67 153.5t-177 55.5h-33v-418zM516 565h19q98 0 169.5 47.5t71.5 151.5q0 53 -19.5 91t-52 61.5t-76.5 35t-93 11.5h-19v-398z" />
<glyph unicode="&#xe40;" horiz-adv-x="368" d="M123 188v639h88v-637q0 -51 15.5 -81.5t74.5 -30.5h59v-78h-75q-86 0 -124 50t-38 138z" />
<glyph unicode="&#xe41;" horiz-adv-x="759" d="M123 188v639h88v-637q0 -51 15.5 -81.5t74.5 -30.5h59v-78h-75q-86 0 -124 50t-38 138zM514 188v639h88v-637q0 -51 15.5 -81.5t74.5 -30.5h60v-78h-76q-86 0 -124 50t-38 138z" />
<glyph unicode="&#xe42;" horiz-adv-x="428" d="M14 1151l17 70h454v-68h-305q47 -41 61.5 -94t14.5 -88v-774q0 -51 13.5 -85t76.5 -34h60v-78h-76q-90 0 -126 55.5t-36 139.5v778q0 82 -39 129t-115 49z" />
<glyph unicode="&#xe43;" horiz-adv-x="428" d="M12 1096q6 43 27.5 74.5t51.5 53t64.5 33t69.5 11.5q104 0 155.5 -48.5t51.5 -132.5q0 -37 -17.5 -69.5t-56.5 -79.5l-77 -92q-23 -27 -24 -48.5t-1 -56.5v-544q0 -51 13.5 -85t76.5 -34h60v-78h-76q-90 0 -126 55.5t-36 139.5v550v35t5 34t15.5 35.5t30.5 43.5l84 98 q35 41 41 63.5t6 32.5q0 59 -39 81t-86 22q-37 0 -76.5 -21.5t-54.5 -87.5z" />
<glyph unicode="&#xe44;" horiz-adv-x="442" d="M-31 1153v68h439l16 -70q-76 -2 -115 -49t-39 -129v-776q0 -51 13.5 -85t76.5 -34h60v-78h-74q-90 0 -127 55.5t-37 139.5v776q0 35 14.5 88t61.5 94h-289z" />
<glyph unicode="&#xe45;" horiz-adv-x="608" d="M4 725q33 53 91.5 82t140.5 29q125 0 187 -69t62 -196v-880h-86v876q0 88 -35.5 140.5t-127.5 52.5q-57 0 -100.5 -20.5t-63.5 -59.5z" />
<glyph unicode="&#xe46;" horiz-adv-x="851" d="M98 612q0 92 35 142.5t127 74.5l160 -133l155 133q63 -18 108.5 -60t45.5 -118v-960h-88v958q0 29 -14.5 54.5t-42.5 39.5l-140 -116q-10 -8 -24 -9.5t-25 9.5l-143 116q-10 -6 -22.5 -12t-21.5 -19.5t-15.5 -37t-6.5 -62.5q0 -23 1 -46t8.5 -42.5t25 -32t49.5 -12.5h9 v-63h-23q-35 0 -63.5 9t-50 31.5t-33 60.5t-11.5 95z" />
<glyph unicode="&#xe47;" d="M-748 1171q0 31 11.5 60t33 51.5t53.5 36.5t70 16h457v-65h-444q-25 0 -43.5 -10.5t-31.5 -25.5t-19.5 -32.5t-6.5 -30.5q0 -29 15.5 -56.5t44.5 -41.5l127 76q25 18 49 0l131 -76q29 12 42 36t3 69h78q16 -72 -24 -122t-107 -63l-148 92l-143 -92q-63 18 -105.5 60.5 t-42.5 117.5z" />
<glyph unicode="&#xe48;" d="M-207 1331v254h84v-254h-84z" />
<glyph unicode="&#xe49;" d="M-362 1331v66q10 0 20 2t18.5 2t18.5 4q16 4 34.5 18.5t18.5 51.5q0 29 -19.5 44t-58.5 11v74q72 0 115 -28t43 -91q0 -47 -35 -82h256v-72h-411z" />
<glyph unicode="&#xe4a;" d="M-555 1460q0 61 29.5 94t60.5 52q14 6 31.5 9t38.5 -16l71 -63l60 63q16 16 36.5 14.5t30.5 -7.5q35 -20 64 -53t29 -93v-61h170v-68h-248v129q0 43 -19.5 60.5t-29.5 21.5l-62 -67q-12 -14 -31 -15q-12 0 -26 15l-74 67q-14 -4 -33.5 -19.5t-19.5 -58.5q0 -27 20.5 -47 t59.5 -20v-72h-13q-61 0 -103 41t-42 94z" />
<glyph unicode="&#xe4b;" d="M-324 1438v71h121v111h80v-111h121v-71h-121v-107h-80v107h-121z" />
<glyph unicode="&#xe4c;" d="M-209 1231q0 45 11.5 72.5t29.5 43t40 20.5t44 5h160v-69h-150q-35 0 -42 -17.5t-7 -54.5h-86z" />
<glyph unicode="&#xe4d;" d="M-299 1272q0 55 39 94t94 39q53 0 92 -39t39 -94q0 -53 -39 -92t-92 -39q-55 0 -94 39t-39 92zM-233 1272q0 -29 19 -47.5t48 -18.5t48.5 18.5t19.5 47.5t-19.5 48t-48.5 19t-48 -19t-19 -48z" />
<glyph unicode="&#xe4e;" d="M-211 1014q0 80 24.5 107.5t61.5 27.5q0 29 11.5 44t28.5 22.5t37.5 8.5t39.5 1h74v-70h-64q-35 0 -42 -12.5t-7 -55.5h-51q-18 0 -22.5 -21.5t-4.5 -51.5h-86z" />
<glyph unicode="&#xe4f;" horiz-adv-x="1054" d="M106 410q0 86 33 162.5t89.5 133t131 89t160.5 32.5t163 -32.5t133 -89t89 -133t33 -162.5t-33 -161t-89 -131.5t-133 -89t-163 -32.5t-160.5 32.5t-131 89t-89.5 131.5t-33 161zM188 410q0 -68 27 -128.5t72 -105.5t105.5 -71.5t127.5 -26.5q70 0 131.5 26.5t106.5 71.5 t71.5 105.5t26.5 128.5q0 70 -26.5 131t-71.5 106t-106.5 71.5t-131.5 26.5q-68 0 -128 -26.5t-105 -71.5t-72 -106t-27 -131zM299 410q0 45 17.5 86t48 71.5t70.5 48t85 17.5t86 -17.5t72 -48t48 -71.5t17 -86t-17 -85t-48 -71t-72 -48.5t-86 -17.5t-85 17.5t-70.5 48.5 t-48 71t-17.5 85zM381 410q0 -57 41 -98.5t98 -41.5q59 0 100.5 41t41.5 99q0 59 -41 100t-101 41q-57 0 -98 -41t-41 -100z" />
<glyph unicode="&#xe50;" horiz-adv-x="933" d="M74 365q0 78 25.5 145.5t75.5 118.5t124 79.5t168 28.5t168 -28.5t124 -79.5t75.5 -119t25.5 -145q0 -78 -25.5 -146.5t-75.5 -120t-124 -80t-168 -28.5t-168 28.5t-124 80t-75.5 120t-25.5 146.5zM162 365q0 -63 22.5 -117.5t62.5 -95.5t96 -66t124 -25t124 25t96 66 t62.5 95t22.5 118q0 61 -22.5 115.5t-62.5 94t-96 63.5t-124 24t-124 -24t-96 -63.5t-62.5 -94t-22.5 -115.5z" />
<glyph unicode="&#xe51;" horiz-adv-x="933" d="M74 360q0 84 29.5 153t82 118t125 76.5t156.5 27.5q88 0 160.5 -29.5t123 -83t78 -129t27.5 -167.5q0 -88 -22.5 -159t-62.5 -127t-95 -99t-121 -76l-41 59q57 33 104.5 72t81 87t52 108.5t18.5 136.5t-23.5 137t-64.5 105t-96.5 69t-118.5 25q-59 0 -113.5 -23 t-96.5 -62.5t-67.5 -95t-25.5 -123.5q0 -258 239 -260q-2 0 -1 -11t1 -26v-34q-90 0 -152.5 24.5t-102 69.5t-57 105t-17.5 132z" />
<glyph unicode="&#xe52;" horiz-adv-x="1013" d="M86 313v633h88v-631q0 -68 32 -115.5t83 -77.5t114.5 -44.5t126.5 -14.5t122 14.5t104 44.5t71.5 78t26.5 115v111q0 78 -28.5 136.5t-84.5 78.5l-110 -102q-14 -16 -32.5 -16.5t-33.5 16.5l-88 102q-39 -14 -61.5 -45t-30.5 -72l-82 27q18 78 69.5 123t121.5 63 l102 -125l127 125q113 -31 165 -110.5t52 -184.5v-127q0 -84 -30.5 -145t-85 -101t-130.5 -58.5t-164 -18.5q-90 0 -169.5 18.5t-141 57t-97.5 99t-36 146.5z" />
<glyph unicode="&#xe53;" horiz-adv-x="997" d="M74 365q0 133 65.5 230t163.5 144l195 -159l194 159q98 -47 165 -143t67 -229q0 -125 -41 -218.5t-95 -154.5l-71 41q39 53 79 132t40 198q0 90 -40 164.5t-100 109.5l-168 -137q-33 -29 -61 0l-164 137q-25 -16 -50.5 -44t-46 -64.5t-32.5 -78.5t-12 -87 q0 -61 14 -115.5t43 -94.5t72 -64.5t102 -24.5q-2 0 -1 -11.5t1 -25.5v-35q-88 0 -149.5 32.5t-99.5 86t-54 120t-16 132.5z" />
<glyph unicode="&#xe54;" horiz-adv-x="1044" d="M74 365q0 78 22.5 144t66.5 114.5t110.5 76t156.5 27.5h379l152 152l59 -58l-168 -166h-422q-127 -2 -197.5 -84t-70.5 -206q0 -127 70.5 -210t197.5 -83h174q-33 27 -59.5 76t-26.5 108q0 115 63.5 166t184.5 51h22v-72h-14q-78 0 -124 -29.5t-46 -113.5 q0 -92 53.5 -138t153.5 -48h82v-72h-463q-90 0 -156.5 27.5t-110.5 77t-66.5 116t-22.5 144.5z" />
<glyph unicode="&#xe55;" horiz-adv-x="1044" d="M74 365q0 78 22.5 144t66.5 114.5t110.5 76t156.5 27.5h74q-18 27 -19 61q0 55 39 94.5t94 39.5q53 0 92.5 -39t39.5 -95q0 -35 -19 -61h78l156 152l59 -56l-176 -168h-418q-127 -2 -197.5 -84t-70.5 -206q0 -127 70.5 -210t197.5 -83h170q-33 27 -59.5 76t-26.5 108 q0 115 63.5 166t184.5 51h22v-72h-14q-78 0 -124 -29.5t-46 -113.5q0 -92 53.5 -138t153.5 -48h86v-72h-463q-90 0 -156.5 27.5t-110.5 77t-66.5 116t-22.5 144.5zM551 788q0 -29 19.5 -47t47.5 -18q29 0 48.5 18.5t19.5 46.5q0 29 -19.5 48.5t-48.5 19.5t-48 -19.5 t-19 -48.5z" />
<glyph unicode="&#xe56;" horiz-adv-x="1013" d="M35 823l59 58l197 -203q41 20 107.5 40.5t146.5 20.5q100 0 174 -29.5t123 -79.5t73.5 -119t24.5 -146q0 -78 -24.5 -145.5t-73.5 -118t-124 -79t-173 -28.5q-162 0 -256.5 74t-104.5 180q-4 47 6.5 80.5t28 57.5t36.5 37t34 19l43 -69q-23 -14 -42.5 -37t-15.5 -86 q2 -43 29 -76t66 -55.5t85 -33.5t91 -11q150 0 228.5 82t78.5 209q0 125 -80 211t-227 88q-100 0 -158.5 -26t-107.5 -60z" />
<glyph unicode="&#xe57;" horiz-adv-x="1036" d="M74 344q0 76 21.5 137.5t56 110.5t79.5 85t93 62l182 -159l182 159q20 -8 47 -25.5t52.5 -40t47 -47t29.5 -44.5v297h86v-533q0 -68 -16 -123t-39 -100t-50.5 -77t-47.5 -52l-72 41q18 20 43 49t45.5 65.5t34.5 85t14 109.5q0 49 -15.5 94t-40 83t-55 67.5t-59.5 48.5 l-155 -137q-33 -29 -62 0l-156 137q-27 -23 -54 -48.5t-51 -61t-38 -81t-14 -102.5q0 -135 67.5 -206.5t167.5 -71.5q-2 0 -1 -11.5t1 -25.5v-35q-86 0 -147.5 30.5t-100 80t-57 112t-18.5 127.5z" />
<glyph unicode="&#xe58;" horiz-adv-x="1009" d="M74 369q0 66 19.5 130t60.5 114.5t104.5 82t151.5 31.5h378l148 152l59 -58l-164 -166h-421q-117 -2 -182.5 -82.5t-65.5 -203.5q0 -45 13 -85t34.5 -74t47.5 -62.5t52 -49.5l164 135q29 29 62 0l163 -139q47 23 77 63t30 101q0 49 -23.5 79t-54.5 46l23 74 q63 -23 100 -71t37 -130q0 -86 -47 -149.5t-148 -112.5l-188 160l-189 -160q-49 23 -92 59.5t-76.5 84.5t-53 106.5t-19.5 124.5z" />
<glyph unicode="&#xe59;" horiz-adv-x="1124" d="M74 365q0 78 24.5 145.5t72.5 118.5t116.5 79.5t156.5 28.5q96 0 164 -45t121 -127q8 76 49 120t142 44h159v-67h-145q-55 0 -84 -17.5t-42 -45.5t-14 -64.5t-1 -73.5l225 -426l-76 -35l-248 463q-55 104 -116.5 151.5t-133.5 47.5q-63 0 -115.5 -24t-89 -63.5t-57 -94 t-20.5 -115.5q0 -63 20.5 -117.5t57 -95.5t89 -65t115.5 -24v-73q-90 0 -158.5 28.5t-115.5 80t-71.5 120t-24.5 146.5z" />
<glyph unicode="&#xe5a;" horiz-adv-x="1103" d="M80 600q0 98 49 162.5t150 64.5h75v-77h-61q-72 0 -99.5 -41t-27.5 -109q0 -100 59.5 -154.5t169.5 -54.5q229 0 230 240v196h90v-827h-90v416q-14 -23 -41 -41.5t-58.5 -31.5t-65.5 -20.5t-65 -7.5q-143 0 -229 75t-86 210zM891 0v827h90v-827h-90z" />
<glyph unicode="&#xe5b;" horiz-adv-x="1810" d="M117 422q0 86 27.5 149.5t70.5 105.5t96.5 62.5t106.5 20.5q74 0 111.5 -22.5t60.5 -43.5l-58 -63q-55 49 -118 49q-41 0 -79 -16.5t-67.5 -49t-48 -81t-18.5 -111.5q0 -78 27.5 -133.5t72.5 -90t103.5 -51t121.5 -16.5q68 0 130.5 32t108.5 84t73.5 119.5t27.5 137.5 q0 57 -14 102l59 43q27 -27 60 -68.5t65.5 -90t63 -94.5t51.5 -81q14 25 32.5 60t37 70.5t33 67.5t22.5 50l39 12l94 -129h281v-65h-310l-65 88q-12 -29 -35 -71t-47.5 -86t-48 -85t-39.5 -65q-16 31 -39 70.5t-48.5 81.5t-53 83t-54.5 72q-14 -92 -51 -168t-92 -130 t-126 -85t-153 -31q-102 0 -180 29t-129 78t-76.5 115.5t-25.5 144.5z" />
<glyph unicode="&#x2000;" horiz-adv-x="810" />
<glyph unicode="&#x2001;" horiz-adv-x="1620" />
<glyph unicode="&#x2002;" horiz-adv-x="810" />
<glyph unicode="&#x2003;" horiz-adv-x="1620" />
<glyph unicode="&#x2004;" horiz-adv-x="540" />
<glyph unicode="&#x2005;" horiz-adv-x="405" />
<glyph unicode="&#x2006;" horiz-adv-x="270" />
<glyph unicode="&#x2007;" horiz-adv-x="270" />
<glyph unicode="&#x2008;" horiz-adv-x="202" />
<glyph unicode="&#x2009;" horiz-adv-x="324" />
<glyph unicode="&#x200a;" horiz-adv-x="90" />
<glyph unicode="&#x200b;" />
<glyph unicode="&#x2010;" horiz-adv-x="688" d="M133 387v76h422v-76h-422z" />
<glyph unicode="&#x2011;" horiz-adv-x="688" d="M133 387v76h422v-76h-422z" />
<glyph unicode="&#x2012;" horiz-adv-x="688" d="M133 387v76h422v-76h-422z" />
<glyph unicode="&#x2013;" horiz-adv-x="829" d="M84 387v76h659v-76h-659z" />
<glyph unicode="&#x2014;" horiz-adv-x="1404" d="M133 387v76h1141v-76h-1141z" />
<glyph unicode="&#x2018;" horiz-adv-x="419" d="M152 938v123l114 104v-227h-114z" />
<glyph unicode="&#x2019;" horiz-adv-x="419" d="M152 864v226h114v-123z" />
<glyph unicode="&#x201c;" horiz-adv-x="671" d="M152 938v123l114 104v-227h-114zM403 938v123l115 104v-227h-115z" />
<glyph unicode="&#x201d;" horiz-adv-x="671" d="M152 864v226h114v-123zM403 864v226h115v-123z" />
<glyph unicode="&#x2022;" horiz-adv-x="919" d="M274 418q0 78 54.5 132t132.5 54t132 -54t54 -132t-54 -132.5t-132 -54.5t-132.5 54.5t-54.5 132.5z" />
<glyph unicode="&#x202f;" horiz-adv-x="324" />
<glyph unicode="&#x205f;" horiz-adv-x="405" />
<glyph unicode="&#x20ac;" horiz-adv-x="925" d="M23 397v74h108v47q0 33 -1 61.5t1 55.5h-108v74h112q6 80 25.5 131t66.5 98q51 53 119 79.5t141 26.5q139 0 233.5 -80.5t119.5 -224.5h-84q-23 109 -93.5 170.5t-175.5 61.5q-53 0 -103 -19.5t-89 -58.5q-37 -35 -53.5 -77t-22.5 -107h281v-74h-287v-117v-47h287v-74 h-287q2 -98 19.5 -153.5t62.5 -100.5q80 -80 192 -80q104 0 177 63.5t96 170.5h78l2 -2q-25 -141 -120 -223t-233 -82q-74 0 -141 27.5t-119 78.5q-29 29 -47 57.5t-28.5 64.5t-14.5 79t-6 100h-108z" />
<glyph unicode="&#x2122;" horiz-adv-x="1245" d="M51 975v59h445v-59h-189v-563h-69v563h-187zM610 412v622h70l203 -389l200 389h70v-622h-72v471l-166 -312h-67l-166 312v-471h-72z" />
<glyph unicode="&#x25cc;" horiz-adv-x="1148" d="M279 492l77 38q-4 -23 -4 -43q0 -18 4 -34zM362 281l27 81q22 -32 55 -55zM373 700l78 -26q-33 -20 -56 -51zM535 709l40 77l37 -75q-18 2 -34 2q-23 0 -43 -4zM539 268q18 -4 39 -4q16 0 30 4l-33 -71zM702 674l86 26l-30 -79q-23 30 -56 53zM705 303q29 20 49 49 l20 -71zM797 457q4 14 4 30q0 19 -4 39l71 -39z" />
<glyph unicode="&#x25fc;" horiz-adv-x="778" d="M0 0v778h778v-778h-778z" />
<glyph unicode="&#xf700;" horiz-adv-x="747" d="M0 666q35 84 111.5 127t185.5 43q55 0 100 -12.5t86 -37.5l166 168l60 -57l-164 -162q35 -37 53 -89t18 -118v-528h-88v274q0 70 -25.5 105t-99.5 35h-141v71h158q45 0 68.5 -10t39.5 -26v57q0 254 -231 254q-74 0 -134.5 -34t-82.5 -101l-41 20q-16 8 -27.5 13.5 t-11.5 7.5z" />
<glyph unicode="&#xf701;" d="M-838 1012v69h533v-69h-533z" />
<glyph unicode="&#xf702;" d="M-838 1012v69h445v144h88v-213h-533z" />
<glyph unicode="&#xf703;" d="M-874 1012v69h358q-4 6 -10 22.5t-6 31.5q0 53 35.5 89t86.5 36q53 0 89 -36t36 -89q0 -51 -35.5 -87t-89.5 -36h-464zM-469 1135q0 -25 18.5 -42.5t40.5 -17.5q27 0 45.5 17.5t18.5 42.5q0 27 -18.5 44t-45.5 17q-23 0 -41 -17t-18 -44z" />
<glyph unicode="&#xf704;" d="M-879 1012v69h334v144h78v-144h84v144h78v-213h-574z" />
<glyph unicode="&#xf705;" d="M-471 1012v254h88v-254h-88zM-471 1012v254h88v-254h-88z" />
<glyph unicode="&#xf706;" d="M-707 1012v65q10 0 21 2q10 2 18.5 2t18.5 4q16 4 34.5 18.5t18.5 51.5q0 29 -19.5 44t-58.5 11v74q72 0 115 -27.5t43 -91.5q0 -47 -35 -82h275v-71h-431z" />
<glyph unicode="&#xf707;" d="M-778 1141q0 61 29.5 94t60.5 51q14 6 31.5 9t38.5 -15l71 -63l60 63q16 16 36.5 14t30.5 -8q35 -20 63.5 -53t28.5 -92v-62h117v-67h-195v129q0 43 -19 60.5t-30 21.5l-61 -68q-12 -14 -31 -14q-12 0 -26 14l-74 68q-14 -4 -33.5 -19.5t-19.5 -58.5q0 -27 20.5 -47.5 t58.5 -20.5v-71h-12q-61 0 -103 40.5t-42 94.5z" />
<glyph unicode="&#xf708;" d="M-621 1110v72h121v110h80v-110h121v-72h-121v-106h-80v106h-121z" />
<glyph unicode="&#xf709;" d="M-545 1012q0 45 11.5 72.5t30 43t40 20.5t43.5 5h129v-70h-129q-31 0 -39 -17t-8 -54h-78z" />
<glyph unicode="&#xf70a;" d="M-211 1012v254h88v-254h-88z" />
<glyph unicode="&#xf70b;" d="M-496 1012v65q10 0 21 2q10 2 18 2t19 4q16 4 34.5 18.5t18.5 51.5q0 29 -19.5 44t-58.5 11v74q72 0 115 -27.5t43 -91.5q0 -47 -35 -82h289v-71h-445z" />
<glyph unicode="&#xf70c;" d="M-649 1141q0 61 29.5 94t60.5 51q14 6 31.5 9t38.5 -15l71 -63l60 63q16 16 36.5 14t30.5 -8q35 -20 63.5 -53t28.5 -92v-62h170v-67h-247v129q0 43 -19.5 60.5t-30.5 21.5l-61 -68q-12 -14 -31 -14q-12 0 -26 14l-74 68q-14 -4 -33.5 -19.5t-19.5 -58.5 q0 -27 20.5 -47.5t58.5 -20.5v-71h-12q-61 0 -103 40.5t-42 94.5z" />
<glyph unicode="&#xf70d;" d="M-326 1118v72h121v110h80v-110h121v-72h-121v-106h-80v106h-121z" />
<glyph unicode="&#xf70e;" d="M-346 1012q0 45 11 72.5t29.5 43t40 20.5t44.5 5h176v-70h-176q-31 0 -39 -17t-8 -54h-78z" />
<glyph unicode="&#xf70f;" horiz-adv-x="1376" d="M57 621q123 215 365 215q174 0 257 -82t83 -236v-203q0 -53 8 -98t30.5 -79t62.5 -53t102 -19q61 0 100 19t61.5 53t30.5 79t8 98v512h88v-530q0 -152 -74.5 -229.5t-213.5 -77.5t-214 77.5t-75 229.5v207q0 141 -66.5 198.5t-189.5 57.5q-72 0 -141.5 -27.5 t-118.5 -114.5l59 -94v-334q0 -51 15.5 -81.5t74.5 -30.5h60v-78h-76q-86 0 -123 50t-37 138v324z" />
<glyph unicode="&#xf710;" d="M-578 1153h93q0 -37 8 -54.5t41 -17.5h467v-69h-484q-23 0 -44 6t-39.5 21.5t-30 43t-11.5 70.5z" />
<glyph unicode="&#xf711;" d="M-569 1094q0 55 38.5 94t94.5 39q53 0 92 -39t39 -94q0 -53 -39 -92t-92 -39q-55 0 -94 39t-39 92zM-504 1094q0 -29 19.5 -47.5t48.5 -18.5t48 18.5t19 47.5t-19.5 48t-47.5 19q-29 0 -48.5 -19t-19.5 -48z" />
<glyph unicode="&#xf712;" d="M-803 1157q0 31 11.5 59.5t33 51t53 37t70.5 16.5h365v-68h-353q-49 0 -74.5 -34.5t-25.5 -61.5q0 -29 15.5 -56.5t43.5 -41.5l84 76q25 18 50 0l88 -76q29 12 42 35.5t3 68.5h78q16 -72 -24 -122t-108 -62l-104 92l-100 -92q-63 18 -105.5 60t-42.5 118z" />
<glyph unicode="&#xf713;" d="M-393 1333v254h88v-254h-88z" />
<glyph unicode="&#xf714;" d="M-545 1333v66q10 0 21 2q10 2 18 2t19 4q16 4 34.5 18.5t18.5 51.5q0 29 -19.5 44t-58.5 11v74q72 0 115 -28t43 -91q0 -47 -35 -82h289v-72h-445z" />
<glyph unicode="&#xf715;" d="M-758 1462q0 61 30 94t60 52q14 6 32 9t38 -15l72 -64l59 64q16 16 36.5 14t31.5 -8q35 -20 63.5 -53t28.5 -93v-61h186v-68h-264v129q0 43 -19.5 60.5t-29.5 21.5l-62 -67q-12 -14 -30 -15q-12 0 -27 15l-74 67q-14 -4 -33.5 -19.5t-19.5 -58.5q0 -27 20.5 -47t59.5 -20 v-72h-12q-61 0 -103.5 41t-42.5 94z" />
<glyph unicode="&#xf716;" d="M-506 1438v71h121v111h80v-111h121v-71h-121v-107h-80v107h-121z" />
<glyph unicode="&#xf717;" d="M-389 1231q0 45 11 72.5t29.5 43t40 20.5t44.5 5h139v-69h-139q-31 0 -39 -17.5t-8 -54.5h-78z" />
<glyph unicode="&#xf718;" d="M-299 -291h39q76 0 106.5 -26.5t30.5 -118.5v-113h-88v111q0 47 -12.5 59t-46.5 12h-25z" />
<glyph unicode="&#xf719;" d="M-502 -293h51q59 0 80 -23.5t21 -80.5v-11q0 -23 15.5 -47t55.5 -24q43 0 56.5 24.5t13.5 46.5v115h86v-115q0 -66 -44 -104.5t-112 -38.5q-72 0 -113.5 38.5t-41.5 104.5q0 25 -8.5 33t-30.5 8h-27z" />
<glyph unicode="&#xf71a;" d="M-260 -354q0 29 19.5 48t47.5 19q29 0 48.5 -19.5t19.5 -47.5q0 -29 -19.5 -48.5t-48.5 -19.5t-48 19.5t-19 48.5z" />
<glyph unicode="&#xf71d;" horiz-adv-x="1099" d="M74 827h90l102 -700l244 700h70l243 -700l76 512q14 111 -115 113v75h70q57 0 86 27t39 70l18 67h90l-26 -94q-16 -55 -48 -85t-77 -46q61 -49 49 -125l-104 -641h-88l-248 684l-248 -684h-90z" />
<glyph unicode="&#xf881;" horiz-adv-x="1488" d="M61 621l76 -109v-324q0 -88 37 -138t123 -50h76v78h-60q-59 0 -74.5 30.5t-15.5 81.5v334l-65 101q53 76 124.5 105.5t141.5 29.5q123 0 189.5 -56.5t66.5 -185.5v-827h86v827q0 154 -83 236t-257 82q-242 0 -365 -215zM885 725q33 53 91 82t140 29q125 0 187.5 -69 t62.5 -196v-880h-86v876q0 88 -36 140.5t-128 52.5q-57 0 -100 -20.5t-64 -59.5z" />
<glyph unicode="&#xf882;" horiz-adv-x="1525" d="M70 78q39 -2 60.5 10t30.5 32.5t10 44t1 44.5v303l-76 109q123 215 365 215q174 0 257 -82t85 -236v-825h-88v825q0 131 -70 186.5t-186 55.5q-70 0 -139.5 -29t-126.5 -104l67 -103v-336q0 -63 -18.5 -101t-46 -57.5t-58.5 -24.5t-53 -5zM922 725q33 53 91 82t140 29 q125 0 187.5 -69t62.5 -196v-880h-86v876q0 88 -36 140.5t-128 52.5q-57 0 -100 -20.5t-64 -59.5z" />
<glyph d="M-545 1012q0 80 24.5 107.5t61.5 27.5q0 29 11.5 44t29 22.5t38 8.5t38.5 1h59v-70h-49q-35 0 -42 -12.5t-7 -55.5h-51q-18 0 -22.5 -21.5t-4.5 -51.5h-86z" />
<glyph horiz-adv-x="612" d="M-557 1122q0 55 39 94t94 39q53 0 92 -38.5t39 -94.5q0 -53 -39 -92t-92 -39q-55 0 -94 39t-39 92zM-492 1122q0 -29 19.5 -47t48.5 -18t48.5 18.5t19.5 46.5q0 29 -19.5 48.5t-48.5 19.5t-48.5 -19.5t-19.5 -48.5zM8 725q33 53 91.5 82t140.5 29q125 0 187 -69t62 -196 v-571h-86v567q0 88 -35.5 140.5t-127.5 52.5q-57 0 -100.5 -20.5t-63.5 -59.5z" />
<glyph horiz-adv-x="612" d="M-557 1122q0 55 39 94t94 39q53 0 92 -38.5t39 -94.5q0 -53 -39 -92t-92 -39q-55 0 -94 39t-39 92zM-492 1122q0 -29 19.5 -47t48.5 -18t48.5 18.5t19.5 46.5q0 29 -19.5 48.5t-48.5 19.5t-48.5 -19.5t-19.5 -48.5zM8 725q33 53 91.5 82t140.5 29q125 0 187 -69t62 -196 v-571h-86v567q0 88 -35.5 140.5t-127.5 52.5q-57 0 -100.5 -20.5t-63.5 -59.5z" />
<glyph d="M-676 1012v69h553v-69h-553z" />
<glyph d="M-676 1012v69h465v144h88v-213h-553z" />
<glyph d="M-676 1012v69h330q-6 8 -11 23.5t-5 30.5q0 53 35.5 89t86.5 36q53 0 89 -36t36 -89q0 -51 -35.5 -87t-89.5 -36h-436zM-299 1135q0 -25 18.5 -42.5t40.5 -17.5q27 0 45.5 17.5t18.5 42.5q0 27 -18.5 44t-45.5 17q-23 0 -41 -17t-18 -44z" />
<glyph d="M-676 1012v69h314v144h77v-144h84v144h78v-213h-553z" />
<glyph d="M-999 1012v69h763v-69h-763z" />
<glyph d="M-999 1012v69h675v144h88v-213h-763z" />
<glyph d="M-999 1012v69h538q-4 6 -10 22.5t-6 31.5q0 53 35.5 89t87.5 36q53 0 89 -36t36 -89q0 -51 -36 -87t-89 -36h-645zM-414 1135q0 -25 18.5 -42.5t41.5 -17.5q27 0 45 17.5t18 42.5q0 27 -18.5 44t-44.5 17q-23 0 -41.5 -17t-18.5 -44z" />
<glyph d="M-999 1012v69h524v144h78v-144h84v144h77v-213h-763z" />
<glyph d="M-319 1331v254h83v-254h-83z" />
<glyph d="M-475 1331v66q10 0 20 2t18.5 2t18.5 4q16 4 34.5 18.5t18.5 51.5q0 29 -19 44t-58 11v74q72 0 114.5 -28t42.5 -91q0 -47 -34 -82h256v-72h-412z" />
<glyph d="M-670 1460q0 61 30 94t60 52q14 6 32 9t38 -16l72 -63l59 63q16 16 36.5 14.5t31.5 -7.5q35 -20 63.5 -53t28.5 -93v-61h170v-68h-248v129q0 43 -19.5 60.5t-29.5 21.5l-62 -67q-12 -14 -30 -15q-12 0 -27 15l-74 67q-14 -4 -32.5 -20.5t-18.5 -61.5q0 -27 21.5 -43 t56.5 -18v-74h-12q-61 0 -103.5 41t-42.5 94z" />
<glyph d="M-438 1438v71h121v111h79v-111h121v-71h-121v-107h-79v107h-121z" />
<glyph d="M-987 1012v69h864v-69h-864z" />
<glyph d="M-987 1012v69h776v144h88v-213h-864z" />
<glyph d="M-987 1012v69h641q-6 8 -11 23.5t-5 30.5q0 53 35.5 89t86.5 36q53 0 89 -36t36 -89q0 -51 -35.5 -87t-89.5 -36h-747zM-299 1135q0 -25 18.5 -42.5t40.5 -17.5q27 0 45.5 17.5t18.5 42.5q0 27 -18.5 44t-45.5 17q-23 0 -41 -17t-18 -44z" />
<glyph d="M-987 1012v69h625v144h77v-144h84v144h78v-213h-864z" />
<glyph d="M-207 1331v254h84v-254h-84z" />
<glyph d="M-362 1331v66q10 0 20 2t18.5 2t18.5 4q16 4 34.5 18.5t18.5 51.5q0 29 -19.5 44t-58.5 11v74q72 0 115 -28t43 -91q0 -47 -35 -82h256v-72h-411z" />
<glyph d="M-555 1460q0 61 29.5 94t60.5 52q14 6 31.5 9t38.5 -16l71 -63l60 63q16 16 36.5 14.5t30.5 -7.5q35 -20 64 -53t29 -93v-61h170v-68h-248v129q0 43 -19.5 60.5t-29.5 21.5l-62 -67q-12 -14 -31 -15q-12 0 -26 15l-74 67q-14 -4 -32.5 -20.5t-18.5 -61.5q0 -27 21.5 -43 t56.5 -18v-74q-72 0 -115 41t-43 94z" />
<glyph d="M-324 1438v71h121v111h80v-111h121v-71h-121v-107h-80v107h-121z" />
<glyph d="M-782 1012v69h635v-69h-635z" />
<glyph d="M-782 1012v69h546v144h89v-213h-635z" />
<glyph d="M-346 971q0 45 11 72.5t29.5 43t40 20.5t44.5 5h151v-70h-141q-35 0 -42 -17t-7 -54h-86z" />
<glyph horiz-adv-x="743" d="M109 256v315q0 117 72.5 192t189.5 75t189.5 -75t72.5 -192v-315q0 -117 -73 -191.5t-189 -74.5q-117 0 -189.5 74.5t-72.5 191.5zM190 264q0 -86 46.5 -143.5t134.5 -57.5q90 0 135 57.5t45 143.5v299q0 86 -45 143.5t-135 57.5q-88 0 -134.5 -57.5t-46.5 -143.5v-299z " />
<glyph horiz-adv-x="641" d="M141 578v98l183 155h77v-831h-82v733z" />
<glyph horiz-adv-x="743" d="M98 0v70l357 336q41 41 66.5 90t25.5 102q0 72 -53.5 124t-131.5 52q-74 0 -127 -52t-53 -132h-82q0 53 19.5 99t54.5 81t83 55.5t105 20.5q61 0 109.5 -19.5t83.5 -53.5t53.5 -79t18.5 -96q0 -74 -31 -131t-82 -109l-305 -284h444v-74h-555z" />
<glyph horiz-adv-x="743" d="M90 88h82q8 -100 68.5 -142t134.5 -42q86 0 143 53t57 149t-48 148.5t-158 52.5h-23v76h23q96 0 142 48t46 140q0 94 -53 143.5t-131 49.5q-84 0 -131 -48t-58 -130h-82q12 121 87 186.5t184 65.5q119 0 192.5 -72t73.5 -195q0 -74 -30.5 -130t-96.5 -91 q145 -62 145 -244q0 -68 -21.5 -118.5t-59 -86.5t-90 -53.5t-111.5 -17.5q-119 0 -199 62.5t-86 195.5z" />
<glyph horiz-adv-x="743" d="M61 0v70l377 759h86l-372 -755h325v311h82v-311h131v-74h-131v-209h-82v209h-416z" />
<glyph horiz-adv-x="743" d="M109 66h81q10 -78 53.5 -121t125.5 -43t131 49q41 41 49 100.5t8 112.5q0 45 -6 90t-24.5 82t-53.5 59.5t-92 22.5q-66 0 -112 -26.5t-62 -76.5h-72v512h481v-73h-407v-324q61 63 180 64q53 0 95 -16.5t73 -45.5q53 -53 67.5 -124.5t14.5 -143.5t-12.5 -140.5 t-65.5 -123.5q-72 -72 -192 -72q-125 0 -193 68q-59 61 -67 170z" />
<glyph horiz-adv-x="743" d="M66 297q0 53 13 106.5t50 120.5l270 510h86l-237 -442q27 8 60.5 14t68.5 6q72 0 128 -23.5t94 -64.5t58.5 -97t20.5 -122t-20.5 -123t-60.5 -100t-96.5 -67.5t-129.5 -24.5q-74 0 -130.5 22.5t-95.5 63.5t-59 97t-20 124zM150 301q0 -104 59 -174t162 -70 q102 0 161.5 70t59.5 174q0 49 -13.5 92t-41 76t-67.5 52.5t-95 19.5q-102 0 -163.5 -64.5t-61.5 -175.5z" />
<glyph horiz-adv-x="743" d="M88 598v229h580v-65l-389 -969h-86l387 967h-410v-162h-82z" />
<glyph horiz-adv-x="743" d="M55 281q0 92 48.5 156.5t123.5 101.5q-72 41 -109.5 97t-37.5 138q0 57 20.5 107.5t59.5 85t91 55t118 20.5t120 -20.5t93 -55t60.5 -85t21.5 -107.5q0 -78 -39 -136t-109 -99q78 -37 124 -101.5t46 -156.5q0 -61 -23.5 -114.5t-66.5 -92.5t-101.5 -60.5t-125.5 -21.5 q-66 0 -123.5 21.5t-99.5 60.5t-66.5 92t-24.5 115zM139 285q0 -45 17.5 -85t48.5 -71t72.5 -48.5t91.5 -17.5q49 0 92 17.5t74.5 48.5t49 71t17.5 85q0 94 -66.5 157.5t-166.5 63.5q-49 0 -91 -17.5t-73 -47t-48.5 -69.5t-17.5 -87zM162 774q0 -90 57 -145.5t150 -55.5 q96 0 153.5 55.5t57.5 145.5q0 88 -57.5 145.5t-153.5 57.5q-92 0 -149.5 -57.5t-57.5 -145.5z" />
<glyph horiz-adv-x="743" d="M66 522q0 66 20 123t59 100t95.5 68t130.5 25t131 -22.5t96 -63.5t59.5 -97.5t20.5 -122.5q0 -53 -14.5 -107t-49.5 -120l-272 -510h-84l238 443q-27 -8 -61 -14.5t-68 -6.5q-72 0 -128.5 23.5t-94.5 64.5t-58 96t-20 121zM150 528q0 -49 13 -92t40.5 -75.5t68.5 -52 t97 -19.5q102 0 162.5 64.5t60.5 174.5q0 104 -58.5 174t-162.5 70q-100 0 -160.5 -70t-60.5 -174z" />
<glyph d="M-635 1171q0 31 11.5 60t33 51.5t53 36.5t70.5 16h358v-65h-346q-25 0 -43 -10.5t-31.5 -25.5t-19.5 -32.5t-6 -30.5q0 -29 15.5 -56.5t43.5 -41.5l84 68q25 18 50 0l88 -70q29 12 42 37t3 70h77q16 -72 -23.5 -122t-107.5 -63l-104 84l-100 -84q-63 18 -105.5 60.5 t-42.5 117.5z" />
<glyph d="M-758 1012v69h635v-69h-635z" />
<glyph d="M-207 1249v254h84v-254h-84z" />
<glyph d="M-362 1229v65q10 0 20 2t18.5 2t18.5 5q16 4 34.5 18t18.5 51q0 29 -19.5 44.5t-58.5 10.5v74q72 0 115 -27.5t43 -91.5q0 -47 -35 -82h256v-71h-411z" />
<glyph d="M-555 1358q0 61 29.5 94t60.5 51q14 6 31.5 9.5t38.5 -15.5l71 -63l60 63q16 16 36.5 14t30.5 -8q35 -20 64 -53t29 -92v-62h170v-67h-248v129q0 43 -19.5 60.5t-29.5 21.5l-62 -68q-12 -14 -31 -14q-12 0 -26 14l-74 68q-14 -4 -33.5 -19.5t-19.5 -58.5 q0 -27 20.5 -47.5t59.5 -20.5v-71h-13q-61 0 -103 41t-42 94z" />
<glyph d="M-324 1335v72h121v111h80v-111h121v-72h-121v-106h-80v106h-121z" />
<glyph d="M-578 1153h93q0 -37 8 -54.5t41 -17.5h528v-69h-545q-23 0 -44 6t-39.5 21.5t-30 43t-11.5 70.5z" />
<glyph d="M-838 1012v69h533v-69h-533z" />
<glyph d="M-393 1231v254h88v-254h-88z" />
<glyph d="M-729 1251v66q10 0 20 2t18.5 2t18.5 4q16 4 35 18.5t19 51.5q0 29 -19.5 44t-58.5 11v74q72 0 114.5 -28t42.5 -91q0 -47 -34 -82h268v-72h-424z" />
<glyph d="M-829 1360q0 61 29.5 94t60.5 51q14 6 31.5 9.5t37.5 -15.5l72 -63l59 63q16 16 37 14t31 -8q35 -20 63.5 -53t28.5 -92v-62h78v-67h-156v129q0 43 -19.5 60.5t-29.5 21.5l-61 -68q-12 -14 -31 -14q-12 0 -27 14l-73 68q-14 -4 -34 -19.5t-20 -58.5q0 -27 20.5 -47.5 t59.5 -20.5v-71h-12q-61 0 -103 41t-42 94z" />
<glyph d="M-516 1335v72h121v111h80v-111h120v-72h-120v-106h-80v106h-121z" />
</font>
</defs>
</svg>
